<?xml version="1.0" standalone="no"?>
<!DOCTYPE svg PUBLIC "-//W3C//DTD SVG 20010904//EN"
 "http://www.w3.org/TR/2001/REC-SVG-20010904/DTD/svg10.dtd">
<svg version="1.0" xmlns="http://www.w3.org/2000/svg"
 width="416.000000pt" height="265.000000pt" viewBox="0 0 416.000000 265.000000"
 preserveAspectRatio="xMidYMid meet">

<g transform="translate(0.000000,265.000000) scale(0.100000,-0.100000)"
fill="#000000" stroke="none">
<path d="M1987 2322 c6 -4 13 -40 15 -85 l3 -77 35 1 c19 1 27 3 18 6 -15 4
-18 16 -18 63 0 32 -3 65 -6 73 -3 10 2 17 13 20 10 3 -2 5 -27 6 -25 0 -40
-3 -33 -7z"/>
<path d="M2145 2318 c-33 -17 -45 -40 -45 -80 0 -50 35 -88 80 -88 43 0 90 47
90 90 0 22 -9 41 -29 61 -31 30 -62 36 -96 17z m75 -13 c17 -20 8 -112 -13
-132 -18 -18 -62 -11 -70 11 -9 23 9 117 24 127 21 13 45 11 59 -6z"/>
<path d="M1815 2296 c-22 -8 -35 -14 -29 -15 7 -1 20 -33 29 -72 15 -60 16
-73 4 -81 -11 -8 -10 -8 4 -4 10 3 25 6 33 6 10 0 13 6 10 18 -19 63 -18 72 2
72 12 0 28 -13 41 -35 20 -34 44 -45 55 -26 3 5 -1 11 -9 15 -8 3 -15 12 -15
20 0 9 -9 20 -21 26 -20 11 -20 12 -3 31 40 44 -22 71 -101 45z m68 -18 c14
-21 2 -48 -22 -48 -13 0 -20 9 -23 30 -6 40 24 52 45 18z"/>
<path d="M2338 2293 c10 -7 8 -21 -7 -64 -29 -84 -32 -89 -45 -82 -7 4 -8 3
-1 -4 6 -6 19 -14 31 -17 17 -5 22 0 30 31 13 53 39 51 40 -3 1 -46 9 -64 27
-64 13 0 16 68 4 87 -4 6 2 13 13 16 46 12 32 59 -25 82 -44 18 -83 28 -67 18z
m81 -42 c14 -26 -9 -56 -37 -47 -18 6 -19 10 -10 36 11 34 33 39 47 11z"/>
<path d="M1640 2230 c-30 -16 -48 -29 -40 -30 23 0 82 -124 67 -140 -7 -6 6
-3 27 7 21 10 32 19 24 21 -18 3 -40 60 -27 68 6 3 16 0 24 -6 18 -15 19 -3 1
29 -13 23 -13 23 -19 2 -7 -30 -22 -26 -37 10 -11 26 -11 32 1 40 19 12 46 11
54 -1 3 -5 10 -10 16 -10 5 0 4 9 -3 20 -16 26 -22 25 -88 -10z"/>
<path d="M2527 2219 c10 -12 5 -27 -25 -77 -23 -39 -42 -60 -50 -57 -30 11 2
-16 54 -45 53 -31 56 -31 69 -14 17 23 11 31 -10 14 -12 -10 -21 -10 -40 -2
-30 14 -31 31 -5 65 11 14 20 29 20 34 0 4 8 18 18 31 16 21 19 21 40 7 12 -9
22 -26 22 -38 1 -21 1 -21 12 -3 9 17 7 22 -12 35 -56 38 -104 64 -93 50z"/>
<path d="M1474 2125 c-27 -19 -42 -35 -33 -35 9 0 35 -26 57 -58 33 -47 39
-62 29 -72 -7 -7 2 -3 20 9 36 24 52 44 30 35 -8 -3 -21 6 -31 22 -17 25 -17
27 8 53 28 30 33 50 14 69 -19 19 -42 14 -94 -23z m70 -7 c14 -20 14 -24 -2
-41 -16 -18 -17 -18 -40 8 -18 21 -20 30 -11 41 17 20 36 17 53 -8z"/>
<path d="M1771 2146 c-1 -11 -8 -28 -18 -38 -18 -21 -5 -24 21 -5 13 10 15 18
7 37 -8 20 -10 21 -10 6z"/>
<path d="M2559 2122 c-11 -5 -14 -13 -10 -26 7 -17 9 -16 24 8 18 26 15 30
-14 18z"/>
<path d="M2082 2088 c-7 -7 -12 -18 -12 -25 0 -8 -19 -32 -42 -53 -37 -36 -56
-45 -82 -41 -15 3 -35 -33 -36 -64 -1 -16 -4 -24 -7 -17 -2 6 -13 12 -24 12
-18 0 -19 -9 -19 -145 0 -80 -3 -145 -8 -145 -4 0 -15 9 -25 20 -27 32 -107
21 -107 -15 0 -23 -16 -18 -34 10 -36 55 -128 13 -128 -58 0 -21 7 -48 15 -61
15 -22 14 -25 -8 -46 -29 -27 -50 -113 -41 -164 5 -27 13 -37 31 -42 25 -6 25
-8 25 -110 0 -88 -2 -103 -15 -98 -32 13 -12 -79 21 -99 19 -11 18 -97 -2
-147 -30 -75 -62 -70 496 -70 445 0 501 2 507 16 3 8 1 25 -5 37 -9 18 -42
123 -42 133 0 2 15 6 34 10 53 9 60 38 53 208 l-6 143 26 12 c24 11 25 14 19
67 -8 67 -26 105 -61 128 -15 10 -33 33 -41 52 -22 51 -49 74 -89 74 -20 0
-47 7 -60 16 -15 10 -37 14 -55 12 l-30 -5 0 134 c0 126 -1 133 -20 133 -11 0
-20 -5 -20 -11 0 -5 -5 -7 -10 -4 -6 3 -8 16 -5 28 5 22 -16 59 -31 56 -26 -4
-45 5 -82 41 -23 21 -42 46 -42 53 0 23 -24 39 -38 25z m31 -38 c4 -15 0 -20
-14 -20 -12 0 -19 7 -19 18 0 37 23 38 33 2z m-62 -61 c-11 -12 -24 -19 -28
-15 -4 4 3 16 17 26 32 24 38 18 11 -11z m128 -30 c6 9 11 10 15 2 4 -6 5 -15
2 -20 -7 -11 22 -37 52 -45 12 -4 22 -12 22 -17 0 -6 -6 -7 -12 -3 -8 5 -8 1
1 -10 8 -10 23 -15 33 -13 16 5 18 -2 20 -61 4 -179 6 -196 21 -185 27 22 64
23 82 3 13 -14 25 -18 39 -14 18 6 19 5 7 -10 -7 -9 -20 -16 -27 -16 -8 0 -14
-5 -14 -12 0 -6 -3 -8 -6 -5 -4 4 -1 13 6 22 14 17 17 16 -67 21 l-52 2 -3
-51 c-4 -66 -28 -78 -28 -13 l0 46 -212 2 c-173 2 -208 5 -188 15 14 6 20 12
14 12 -9 1 -11 36 -8 124 3 113 5 122 22 119 10 -1 25 5 33 15 9 11 10 14 2 9
-8 -4 -13 -1 -13 8 0 10 9 16 23 16 13 0 49 24 87 59 l65 59 38 -36 c29 -28
40 -34 46 -23z m-9 20 c0 -15 -15 -10 -33 11 -24 28 -21 33 8 14 14 -9 25 -20
25 -25z m-168 -31 c-7 -7 -12 -8 -12 -2 0 6 3 14 7 17 3 4 9 5 12 2 2 -3 -1
-11 -7 -17z m-35 -6 c13 10 15 9 12 -6 -2 -11 -13 -20 -23 -22 -29 -4 -39 6
-24 23 8 10 14 11 16 4 3 -9 8 -8 19 1z m273 -2 c0 10 3 10 15 0 8 -7 12 -16
9 -21 -9 -15 -49 -3 -53 17 -3 16 -1 17 13 5 12 -10 16 -11 16 -1z m-350 -60
c0 -5 -4 -10 -10 -10 -5 0 -10 5 -10 10 0 6 5 10 10 10 6 0 10 -4 10 -10z
m430 0 c0 -5 -4 -10 -10 -10 -5 0 -10 5 -10 10 0 6 5 10 10 10 6 0 10 -4 10
-10z m-654 -255 c-3 -9 0 -15 9 -15 7 0 17 -10 21 -22 11 -33 13 -78 4 -78 -4
0 -10 -10 -13 -22 -6 -22 -5 -22 8 -4 8 11 21 16 30 13 8 -4 15 -2 15 4 0 6 7
9 15 5 13 -5 13 -2 -1 18 -8 14 -14 30 -13 38 1 7 -1 21 -6 31 -16 38 51 61
84 28 20 -20 32 -99 13 -87 -4 2 -14 -5 -22 -17 -12 -20 -12 -21 4 -8 13 11
22 11 41 3 24 -11 25 -10 25 23 l0 35 191 0 192 0 -6 -77 c-3 -43 -3 -67 0
-55 5 24 8 24 58 7 11 -3 7 1 -8 10 -27 16 -28 41 -1 31 8 -3 14 -1 14 5 0 6
8 8 18 4 14 -5 15 -4 5 6 -7 7 -13 28 -13 46 0 31 2 33 38 33 28 0 33 -3 22
-10 -12 -8 -12 -12 -2 -18 16 -11 12 -70 -6 -84 -10 -9 -19 -8 -35 2 -22 13
-22 12 -4 -8 14 -15 15 -21 5 -25 -7 -2 -10 -7 -7 -11 4 -4 19 7 35 24 16 16
38 30 49 30 13 0 16 -3 8 -8 -6 -4 -14 -37 -16 -74 -3 -36 -11 -76 -17 -88 -6
-11 -10 -29 -8 -38 2 -9 -4 -26 -14 -36 -10 -11 -18 -34 -18 -52 0 -17 -6 -37
-14 -43 -11 -9 -14 -9 -13 1 1 36 -6 81 -10 64 -4 -16 -9 -14 -41 15 -32 30
-32 29 6 -13 44 -50 49 -62 31 -74 -8 -4 -8 -8 -1 -13 6 -4 18 -22 26 -41 8
-19 15 -29 16 -22 0 6 10 12 23 11 l22 0 -22 -16 c-13 -8 -23 -21 -23 -29 0
-25 45 32 62 79 20 55 15 63 -6 12 -10 -24 -21 -35 -36 -35 -26 0 -37 27 -22
51 7 10 12 28 12 39 0 17 7 20 58 22 l57 2 -58 3 c-52 4 -56 6 -47 23 5 10 24
22 42 26 32 7 32 8 8 14 -27 6 -35 27 -21 50 8 12 14 11 35 -9 14 -13 23 -27
21 -32 -3 -4 3 -5 13 -2 12 3 24 -4 35 -21 16 -23 16 -26 -1 -35 -16 -10 -16
-10 1 -11 20 0 56 -69 57 -107 0 -12 4 -24 9 -27 4 -3 6 5 4 18 -4 17 1 27 15
35 17 9 19 7 17 -19 -4 -66 -5 -70 -24 -70 -11 0 -23 -5 -27 -11 -4 -8 3 -9
25 -4 20 4 31 3 31 -4 0 -6 -4 -11 -8 -11 -5 0 -8 -10 -8 -22 1 -15 -8 -27
-28 -36 -27 -13 -31 -13 -43 4 -12 17 -11 20 18 27 17 4 29 10 27 13 -3 2 -28
-2 -56 -9 -38 -9 -49 -16 -43 -26 6 -9 11 -10 15 -2 4 6 11 11 15 11 7 0 51
-144 51 -169 0 -18 -30 -12 -31 7 -1 16 -2 16 -6 0 -3 -11 -14 -18 -29 -18
-20 0 -24 5 -24 30 0 33 19 82 30 75 4 -2 5 6 3 19 -4 22 -7 22 -48 13 -24 -5
-51 -7 -61 -3 -18 7 -18 8 0 22 23 17 25 17 -44 -1 -30 -7 -45 -14 -32 -14 27
-1 30 -31 3 -31 -17 0 -19 -5 -14 -37 3 -21 10 -46 14 -55 8 -15 -3 -17 -116
-17 -123 -1 -125 -1 -126 21 l-2 23 -4 -22 c-4 -19 -11 -23 -43 -23 -52 0 -70
8 -71 34 -1 19 -2 18 -8 -4 -4 -14 -15 -26 -24 -28 -15 -3 -17 2 -12 25 l5 28
-11 -27 -10 -27 -154 0 -153 0 24 87 c13 48 24 90 24 94 0 5 7 8 15 8 19 0 19
1 -5 -90 -10 -41 -18 -75 -17 -75 1 0 22 2 47 6 42 6 43 6 10 8 -31 1 -33 3
-15 13 11 6 22 12 23 14 2 1 -1 19 -8 39 -7 20 -10 38 -8 40 2 3 21 -1 41 -7
40 -12 45 -27 23 -69 -7 -15 -11 -32 -7 -38 4 -6 13 13 20 41 17 67 29 90 43
82 5 -4 31 -8 57 -9 43 -3 42 -2 -24 16 -84 22 -95 23 -70 6 28 -21 2 -30 -45
-16 -50 15 -56 43 -7 35 19 -3 13 1 -16 10 -27 9 -51 13 -54 11 -3 -3 -11 -23
-18 -44 -13 -35 -14 -36 -15 -10 0 16 -6 27 -14 27 -19 0 -30 32 -14 42 10 6
8 8 -4 8 -10 0 -18 5 -18 11 0 7 11 9 31 5 27 -5 29 -4 15 10 -20 20 -23 203
-4 222 10 10 8 12 -7 11 -57 -6 -57 -5 -53 77 3 72 6 78 37 106 21 19 40 28
53 25 16 -4 17 -3 7 9 -6 8 -20 14 -30 14 -23 0 -39 29 -39 69 0 25 7 36 33
51 39 24 72 27 63 5z m851 -40 c20 -14 50 -79 45 -97 -1 -5 6 -8 16 -8 31 0
61 -43 74 -105 10 -53 10 -59 -7 -71 -21 -15 -61 -19 -69 -6 -11 18 7 52 28
53 11 0 15 3 9 6 -8 2 -13 22 -13 44 0 31 -4 39 -17 38 -11 0 -13 -3 -5 -6 6
-2 12 -21 12 -40 0 -35 -1 -35 -19 -19 -17 15 -19 15 -25 1 -4 -11 -1 -15 12
-13 12 2 16 -3 14 -17 -2 -11 -9 -23 -15 -27 -15 -9 10 -38 34 -38 15 0 19 -7
19 -37 l-1 -38 -25 29 c-14 15 -27 26 -30 23 -3 -3 9 -22 27 -42 32 -36 32
-38 14 -51 -10 -8 -22 -14 -25 -14 -12 0 -37 65 -34 86 3 16 -5 24 -31 34 -43
17 -71 46 -80 82 -6 21 -3 29 11 35 26 10 78 -51 70 -83 -5 -17 -2 -24 8 -24
8 0 18 5 21 10 3 6 1 10 -5 10 -6 0 -10 6 -8 13 1 6 -3 22 -10 35 -9 15 -9 22
-2 22 6 0 8 5 4 11 -4 8 -9 7 -15 -2 -6 -11 -12 -10 -27 4 -10 9 -24 17 -30
17 -7 0 -12 7 -12 16 0 11 6 14 23 9 20 -5 20 -5 -3 9 l-25 15 24 9 25 9 -31
23 c-36 26 -34 44 8 65 37 20 44 19 57 -7 6 -13 11 -17 11 -10 1 6 -8 21 -19
32 -32 32 -22 42 17 15z m-200 -57 c-2 -13 -4 -5 -4 17 -1 22 1 32 4 23 2 -10
2 -28 0 -40z m-447 16 c0 -14 -4 -23 -10 -19 -5 3 -10 15 -10 26 0 10 5 19 10
19 6 0 10 -12 10 -26z m733 -406 c-13 -12 -26 -19 -29 -15 -4 4 1 14 12 22 29
22 41 18 17 -7z m-214 -250 c6 -23 9 -27 10 -12 1 17 9 22 43 27 24 3 44 4 46
2 2 -2 -4 -17 -12 -34 -9 -16 -16 -44 -16 -61 0 -42 -26 -39 -40 6 -15 43 -23
40 -11 -4 8 -27 7 -32 -8 -32 -13 0 -21 12 -29 43 l-11 42 5 -42 c7 -49 -14
-60 -35 -19 -18 32 -11 71 12 69 15 -1 17 4 13 23 -10 38 22 30 33 -8z m-699
-29 c0 -7 -31 -22 -36 -17 -1 2 0 16 3 32 6 27 7 28 19 11 8 -10 14 -22 14
-26z m888 -101 c-7 -19 -989 -19 -995 0 -4 9 100 12 497 12 397 0 501 -3 498
-12z"/>
<path d="M2037 1919 l-57 -51 0 -78 c0 -95 -19 -121 -21 -28 -1 35 -1 66 0 71
2 11 -13 8 -35 -8 -18 -14 -18 -14 4 -8 21 5 22 3 22 -64 0 -53 -4 -74 -18
-89 -21 -22 -35 -64 -21 -64 5 0 9 6 9 13 0 8 14 33 30 56 25 34 35 41 53 36
15 -4 18 -3 8 3 -25 18 24 40 77 34 26 -2 43 -1 39 4 -4 5 -18 9 -29 9 -21 0
-67 59 -56 71 12 11 38 -10 38 -32 0 -13 5 -24 10 -24 13 0 13 4 -4 45 -10 24
-22 35 -35 35 -25 0 -28 20 -3 21 15 0 15 1 -2 8 -17 6 -16 9 9 39 15 18 32
32 38 32 7 0 33 -19 60 -43 47 -42 47 -42 47 -104 0 -35 -4 -63 -9 -63 -4 0
-20 11 -35 25 -14 13 -26 20 -26 15 0 -13 27 -38 50 -45 11 -3 20 -10 20 -15
0 -4 9 -10 19 -13 11 -3 29 -20 40 -38 l21 -34 -2 95 c-2 90 -2 91 -5 22 -3
-63 -6 -72 -18 -62 -20 16 -22 145 -2 134 7 -5 6 0 -3 11 -14 17 -15 13 -18
-48 -4 -91 -22 -85 -22 6 0 71 -1 74 -37 108 -83 77 -72 75 -136 18z m-15 -99
c0 -44 -5 -67 -16 -78 -15 -15 -16 -10 -16 54 0 41 5 75 12 82 17 17 20 10 20
-58z m28 -45 c0 -8 -4 -17 -10 -20 -6 -4 -10 5 -10 20 0 15 4 24 10 20 6 -3
10 -12 10 -20z"/>
<path d="M2056 1911 c-4 -6 7 -8 29 -4 30 5 36 2 44 -18 5 -13 6 -28 4 -33 -3
-4 1 -12 8 -17 7 -4 19 -23 26 -41 12 -31 13 -31 7 -4 -3 16 -15 50 -27 75
-18 39 -27 46 -54 49 -17 2 -34 -1 -37 -7z"/>
<path d="M2088 1883 c7 -3 16 -2 19 1 4 3 -2 6 -13 5 -11 0 -14 -3 -6 -6z"/>
<path d="M2090 1840 c0 -5 5 -10 10 -10 6 0 10 5 10 10 0 6 -4 10 -10 10 -5 0
-10 -4 -10 -10z"/>
<path d="M1912 1710 c0 -14 2 -19 5 -12 2 6 2 18 0 25 -3 6 -5 1 -5 -13z"/>
<path d="M2182 1650 c-7 -11 -8 -20 -3 -20 9 0 24 30 18 36 -1 2 -8 -6 -15
-16z"/>
<path d="M1992 1644 c-11 -12 -9 -14 8 -14 11 0 20 4 20 9 0 17 -15 19 -28 5z"/>
<path d="M2205 1640 c-3 -5 1 -10 9 -10 8 0 18 5 21 10 3 6 -1 10 -9 10 -8 0
-18 -4 -21 -10z"/>
<path d="M1948 1633 c7 -3 16 -2 19 1 4 3 -2 6 -13 5 -11 0 -14 -3 -6 -6z"/>
<path d="M2090 1630 c-9 -6 -10 -10 -3 -10 6 0 15 5 18 10 8 12 4 12 -15 0z"/>
<path d="M2078 1603 c7 -3 16 -2 19 1 4 3 -2 6 -13 5 -11 0 -14 -3 -6 -6z"/>
<path d="M1617 1587 c-11 -29 -9 -53 4 -40 6 6 9 21 7 34 -3 21 -4 22 -11 6z"/>
<path d="M1796 1591 c-16 -6 -17 -9 -6 -16 9 -5 15 -4 18 3 2 7 9 9 14 6 7 -4
8 -2 4 4 -4 7 -8 12 -9 11 -1 0 -11 -4 -21 -8z"/>
<path d="M1753 1578 c1 -7 6 -16 10 -19 4 -3 11 -23 14 -44 6 -35 4 -38 -13
-32 -16 6 -15 4 4 -12 31 -27 28 -45 -13 -60 -25 -9 -35 -18 -35 -34 0 -12 -7
-35 -15 -51 -14 -25 -14 -27 0 -16 13 10 15 9 15 -9 0 -13 -13 -29 -35 -43
-41 -27 -66 -75 -45 -88 10 -6 11 -17 1 -55 -9 -35 -9 -50 0 -61 6 -8 9 -21 5
-29 -3 -9 0 -15 8 -15 15 0 15 9 2 48 -4 13 -5 39 -1 58 4 26 11 34 28 35 21
0 21 1 -3 10 -13 6 -28 15 -31 21 -10 16 20 58 47 68 20 8 44 60 48 103 1 4
16 16 33 27 32 19 33 19 43 0 6 -11 9 -24 7 -28 -3 -4 1 -13 9 -20 18 -16 18
-11 -2 38 -9 22 -21 40 -26 40 -5 0 -9 12 -7 28 1 15 -1 34 -4 42 -3 8 -11 36
-17 63 -7 26 -17 47 -21 47 -5 0 -8 -6 -6 -12z m47 -172 c0 -2 -16 -13 -35
-25 -29 -17 -35 -18 -35 -5 0 8 10 19 23 24 24 9 47 13 47 6z"/>
<path d="M1920 1488 c0 -51 2 -54 45 -83 25 -16 45 -33 45 -37 0 -5 -21 -9
-47 -9 -31 -1 -38 -3 -20 -6 22 -4 27 -8 21 -21 -4 -9 -9 -31 -12 -49 -2 -20
-14 -38 -30 -49 -22 -14 -24 -15 -19 -1 4 11 2 14 -7 11 -8 -3 -12 -14 -9 -24
3 -10 -2 -39 -12 -63 -17 -45 -36 -197 -24 -197 3 0 9 36 12 80 6 96 37 170
70 170 16 0 18 3 9 9 -18 11 12 36 33 27 8 -3 15 -1 15 4 0 6 -7 10 -15 10 -8
0 -15 9 -15 19 0 34 10 49 31 44 22 -6 25 -23 7 -43 -7 -7 -1 -5 13 6 21 15
24 21 13 31 -7 7 -17 13 -23 13 -22 0 -10 18 15 24 25 7 24 8 -30 47 -31 22
-56 43 -56 47 0 4 28 26 62 50 l62 42 -67 0 -67 0 0 -52z m79 23 c-13 -10 -34
-23 -46 -30 -21 -11 -23 -10 -23 19 0 29 1 30 46 30 l47 0 -24 -19z"/>
<path d="M2063 1533 c8 -7 119 -5 126 3 2 2 -26 4 -64 4 -38 0 -65 -3 -62 -7z"/>
<path d="M2367 1520 c-3 -11 -1 -20 4 -20 5 0 9 9 9 20 0 11 -2 20 -4 20 -2 0
-6 -9 -9 -20z"/>
<path d="M2232 1500 c0 -19 2 -27 5 -17 2 9 2 25 0 35 -3 9 -5 1 -5 -18z"/>
<path d="M2112 1499 c14 -11 36 -28 48 -37 l22 -18 -68 -47 c-69 -48 -69 -50
0 -47 l39 2 -7 -54 c-4 -32 -2 -59 5 -68 8 -11 9 -7 4 17 -3 17 -2 34 3 37 6
3 8 15 5 26 -3 12 2 29 11 39 16 17 14 18 -34 13 -27 -2 -50 -2 -50 1 0 3 19
19 42 36 31 23 44 28 50 18 4 -7 8 3 8 25 0 26 -4 36 -13 32 -7 -2 -28 7 -47
21 -19 14 -36 25 -39 25 -3 0 6 -10 21 -21z"/>
<path d="M2005 1481 c-22 -16 -39 -32 -38 -36 1 -4 20 -20 44 -36 l42 -28 44
30 c23 17 43 35 43 41 0 7 -5 5 -12 -4 -7 -8 -27 -24 -44 -36 l-30 -21 -43 28
-42 28 41 27 41 27 35 -21 c18 -12 34 -19 34 -17 0 6 -64 47 -71 47 -2 -1 -22
-14 -44 -29z"/>
<path d="M1612 1398 c-2 -44 -6 -58 -19 -61 -10 -3 -3 -4 15 -3 33 3 58 16 29
16 -12 0 -17 12 -20 53 l-3 52 -2 -57z"/>
<path d="M1706 1443 c5 -5 12 -12 15 -16 3 -5 9 -2 12 7 5 12 0 16 -15 16 -12
0 -17 -3 -12 -7z"/>
<path d="M2251 1383 c-1 -26 -4 -31 -18 -26 -16 5 -15 4 1 -9 10 -8 16 -20 12
-26 -4 -7 -3 -12 3 -12 5 0 12 -10 14 -22 4 -20 4 -19 6 5 1 18 7 27 19 28 14
0 14 2 -3 8 -13 5 -22 21 -26 47 -6 37 -6 37 -8 7z"/>
<path d="M2374 1364 c-18 -14 -18 -15 4 -4 12 6 22 13 22 15 0 8 -5 6 -26 -11z"/>
<path d="M1765 1350 c3 -5 8 -10 11 -10 2 0 4 5 4 10 0 6 -5 10 -11 10 -5 0
-7 -4 -4 -10z"/>
<path d="M1873 1333 c1 -17 -5 -38 -12 -47 -20 -24 -8 -29 17 -7 22 18 30 51
13 51 -5 0 -12 8 -14 18 -3 9 -5 3 -4 -15z"/>
<path d="M1665 1340 c3 -5 12 -7 20 -3 21 7 19 13 -6 13 -11 0 -18 -4 -14 -10z"/>
<path d="M2330 1327 c-19 -16 -24 -43 -10 -65 8 -14 9 -12 4 9 -3 15 -1 30 5
33 6 4 11 2 11 -3 0 -6 3 -11 8 -11 4 0 7 11 7 25 0 28 -3 30 -25 12z"/>
<path d="M2195 1321 c-3 -5 0 -13 6 -17 7 -4 9 -3 5 4 -3 5 0 13 6 15 9 4 10
6 1 6 -6 1 -14 -3 -18 -8z"/>
<path d="M1645 1301 c4 -8 2 -17 -6 -22 -9 -6 -10 -9 -2 -9 19 0 27 21 13 33
-10 9 -11 9 -5 -2z"/>
<path d="M1831 1298 c-1 -18 -29 -24 -47 -10 -5 4 5 -6 22 -23 17 -16 37 -39
43 -50 8 -12 10 -13 8 -4 -3 9 0 22 6 29 9 10 8 12 -5 7 -22 -8 -42 15 -27 30
6 6 9 17 6 25 -4 9 -6 7 -6 -4z"/>
<path d="M2064 1292 c2 -4 -3 -23 -11 -41 -11 -22 -22 -31 -34 -28 -9 3 -23 1
-30 -4 -10 -6 -4 -9 17 -9 23 0 36 7 48 25 20 31 34 32 45 3 6 -17 9 -18 14
-6 3 10 -3 20 -19 28 -18 10 -21 16 -13 27 9 10 8 13 -5 13 -10 0 -15 -4 -12
-8z"/>
<path d="M2360 1270 c0 -5 5 -10 11 -10 5 0 7 5 4 10 -3 6 -8 10 -11 10 -2 0
-4 -4 -4 -10z"/>
<path d="M2194 1227 c-12 -6 -29 -25 -39 -43 -9 -18 -23 -30 -30 -28 -14 6
-26 -18 -30 -57 -1 -14 -9 -38 -17 -54 -14 -27 -14 -30 8 -49 22 -19 23 -24
13 -59 -6 -22 -8 -41 -6 -43 2 -3 9 15 16 40 6 26 21 53 36 64 23 19 36 40 16
28 -12 -8 -22 34 -14 62 3 12 10 22 16 22 6 0 3 6 -7 13 -17 12 -17 15 4 51
13 21 28 35 35 32 7 -2 15 4 18 15 3 10 4 18 4 18 -1 -1 -12 -6 -23 -12z m-59
-151 c4 -72 -9 -95 -39 -73 -17 13 -17 16 0 68 9 30 19 60 21 68 7 28 15 1 18
-63z"/>
<path d="M2083 1182 c-30 -14 -33 -20 -32 -56 1 -23 4 -31 6 -18 2 12 8 22 13
22 5 0 7 6 4 13 -2 7 7 19 21 27 14 7 25 17 25 22 0 4 -1 7 -2 7 -2 -1 -18 -9
-35 -17z"/>
<path d="M1622 1125 c0 -16 2 -22 5 -12 2 9 2 23 0 30 -3 6 -5 -1 -5 -18z"/>
<path d="M1790 1121 c0 -6 4 -13 10 -16 6 -3 7 1 4 9 -7 18 -14 21 -14 7z"/>
<path d="M1980 1074 c0 -6 7 -19 16 -30 14 -18 14 -18 3 6 -14 31 -19 36 -19
24z"/>
<path d="M2180 1030 c0 -5 5 -10 11 -10 5 0 7 5 4 10 -3 6 -8 10 -11 10 -2 0
-4 -4 -4 -10z"/>
<path d="M1608 993 c7 -3 16 -2 19 1 4 3 -2 6 -13 5 -11 0 -14 -3 -6 -6z"/>
<path d="M2355 970 c-3 -5 -1 -10 4 -10 6 0 11 5 11 10 0 6 -2 10 -4 10 -3 0
-8 -4 -11 -10z"/>
<path d="M2398 973 c7 -3 16 -2 19 1 4 3 -2 6 -13 5 -11 0 -14 -3 -6 -6z"/>
<path d="M2438 953 c7 -3 16 -2 19 1 4 3 -2 6 -13 5 -11 0 -14 -3 -6 -6z"/>
<path d="M2268 943 c7 -3 16 -2 19 1 4 3 -2 6 -13 5 -11 0 -14 -3 -6 -6z"/>
<path d="M2188 923 c7 -3 16 -2 19 1 4 3 -2 6 -13 5 -11 0 -14 -3 -6 -6z"/>
<path d="M1918 913 c8 -3 11 -17 7 -41 -5 -35 -5 -36 6 -9 6 16 18 27 27 26
47 -4 53 4 12 17 -42 13 -80 18 -52 7z"/>
<path d="M2245 910 c-13 -5 -14 -9 -5 -9 8 0 24 4 35 9 13 5 14 9 5 9 -8 0
-24 -4 -35 -9z"/>
<path d="M1796 880 c-9 -47 -8 -50 15 -50 11 0 27 -7 35 -15 9 -8 23 -15 32
-14 13 0 12 2 -4 9 -17 6 -20 15 -16 40 4 27 8 31 28 26 13 -4 24 -2 24 3 0 4
-15 11 -32 14 -18 4 -42 9 -54 12 -18 6 -22 1 -28 -25z m54 -16 c0 -19 -5 -24
-25 -24 -27 0 -28 3 -19 36 8 30 44 20 44 -12z"/>
<path d="M2121 899 c-1 -19 26 -44 57 -52 15 -3 22 -1 22 9 0 10 -7 13 -25 8
-25 -6 -36 10 -12 19 6 3 2 6 -10 6 -12 1 -24 7 -26 14 -4 8 -6 6 -6 -4z"/>
<path d="M2010 880 c-13 -10 -30 -16 -37 -13 -8 3 -13 -2 -12 -13 0 -11 3 -14
5 -7 3 7 11 10 17 8 12 -4 63 32 56 40 -2 2 -15 -5 -29 -15z"/>
<path d="M2180 889 c0 -6 8 -8 18 -5 15 5 22 -3 35 -41 10 -30 14 -36 11 -17
-4 25 0 33 18 42 23 12 23 12 -4 9 -16 -3 -29 1 -32 9 -6 16 -46 19 -46 3z"/>
<path d="M2081 854 c0 -11 3 -14 6 -6 3 7 2 16 -1 19 -3 4 -6 -2 -5 -13z"/>
<path d="M2426 1521 c-3 -4 6 -6 19 -3 14 2 25 6 25 8 0 8 -39 4 -44 -5z"/>
<path d="M2470 1500 c0 -6 7 -13 15 -16 8 -4 13 -9 11 -13 -3 -4 -1 -13 3 -20
6 -9 10 -5 13 13 3 14 2 23 -3 21 -4 -3 -15 2 -23 11 -9 8 -16 10 -16 4z"/>
<path d="M2480 1416 c0 -10 28 -13 41 -5 10 6 7 9 -13 9 -16 0 -28 -2 -28 -4z"/>
<path d="M1364 2028 c-10 -12 -13 -18 -6 -14 16 10 112 -70 112 -93 0 -25 -35
-55 -53 -44 -43 25 -98 83 -91 95 4 7 -7 0 -24 -16 -36 -33 -38 -38 -18 -30 7
3 35 -13 60 -35 54 -47 83 -51 114 -18 33 35 27 58 -28 112 -27 26 -47 52 -44
57 10 16 -3 8 -22 -14z"/>
<path d="M2749 2001 c-23 -19 -23 -19 -6 -55 22 -48 22 -63 -3 -71 -31 -10
-52 13 -48 51 3 28 2 31 -12 21 -8 -6 -17 -12 -19 -14 -2 -1 8 -18 23 -38 29
-37 59 -45 90 -22 19 14 19 25 0 100 -5 23 -3 27 14 27 28 0 45 -24 36 -52 -6
-20 -5 -21 10 -9 21 18 20 23 -9 55 -29 31 -45 33 -76 7z"/>
<path d="M1226 1852 c-3 -9 -11 -25 -18 -34 -9 -13 -9 -22 0 -42 15 -34 57
-35 92 -1 31 29 60 25 60 -9 0 -29 -18 -46 -49 -46 -25 -1 -25 -1 -6 -15 17
-14 21 -13 42 12 29 36 30 77 1 97 -31 22 -39 20 -77 -15 -31 -28 -35 -29 -50
-15 -21 22 -4 49 35 56 l28 5 -26 12 c-22 10 -27 9 -32 -5z"/>
<path d="M2840 1834 c-41 -8 -81 -12 -87 -9 -10 3 -10 0 -1 -14 10 -16 14 -17
25 -5 21 20 32 17 45 -11 8 -19 8 -28 -2 -40 -7 -8 -16 -12 -21 -9 -5 3 2 -16
16 -42 14 -26 25 -54 25 -63 0 -12 2 -13 8 -4 9 15 122 56 122 44 0 -4 -21
-35 -46 -70 -25 -34 -43 -65 -40 -68 2 -3 34 5 70 17 36 12 70 19 76 15 5 -3
10 1 10 9 0 20 -2 20 -47 1 -55 -23 -58 -19 -19 35 28 39 35 56 30 76 -4 14
-9 22 -13 16 -6 -10 -140 -56 -145 -51 -2 2 -6 14 -10 25 -5 17 5 36 44 82 46
55 61 84 43 81 -5 -1 -42 -7 -83 -15z m22 -26 c-19 -20 -24 -21 -32 -8 -7 11
-4 17 8 22 37 15 47 9 24 -14z"/>
<path d="M1280 1583 c0 -5 -38 -15 -85 -22 -47 -7 -85 -17 -85 -21 0 -4 29
-27 65 -50 36 -24 70 -50 75 -59 9 -15 9 -15 10 1 0 9 3 25 6 35 5 15 4 15 -5
3 -7 -11 -15 -12 -26 -5 -9 6 -16 13 -16 18 1 4 1 17 1 28 0 18 5 21 29 17 26
-4 30 -1 35 25 3 17 4 32 1 35 -3 3 -5 1 -5 -5z m-70 -73 c0 -23 -4 -24 -33
-8 -21 11 -21 11 -2 19 31 12 35 11 35 -11z"/>
<path d="M3020 1507 c40 -20 37 -43 -7 -51 -61 -10 -113 -7 -113 6 0 6 -3 9
-6 6 -3 -3 -2 -23 2 -43 4 -21 10 -32 14 -26 4 7 39 15 78 18 62 5 72 4 72
-10 0 -9 -10 -23 -22 -31 l-22 -16 21 0 c31 0 34 10 27 89 l-7 71 -31 0 -31 0
25 -13z"/>
<path d="M1215 1409 c27 -16 35 -29 35 -56 0 -22 -4 -23 -80 -23 -73 0 -80 -2
-80 -20 0 -18 7 -20 79 -20 54 0 81 -4 84 -12 3 -7 6 20 6 60 1 56 -2 72 -13
72 -8 0 -23 3 -33 6 -15 5 -15 3 2 -7z"/>
<path d="M3027 1317 c-3 -8 0 -20 6 -26 18 -18 -15 -14 -43 6 l-25 17 19 -23
c29 -32 81 -26 81 9 0 27 -29 40 -38 17z"/>
<path d="M2897 1250 c-9 -33 -9 -48 1 -32 12 19 42 3 42 -22 0 -15 3 -17 9 -7
7 10 13 11 31 1 28 -15 25 -17 -34 -25 -35 -4 -52 -2 -58 7 -5 9 -8 7 -8 -7 0
-11 -3 -31 -6 -45 -3 -14 -2 -20 3 -14 4 6 45 17 91 24 45 7 82 16 82 21 0 4
-31 27 -70 51 -38 24 -71 50 -73 58 -2 9 -6 5 -10 -10z"/>
<path d="M1125 1198 c-71 -84 48 -186 126 -109 58 58 23 141 -60 141 -32 0
-44 -6 -66 -32z m133 -10 c7 -7 12 -23 12 -36 0 -27 -49 -52 -105 -52 -28 0
-38 5 -47 25 -8 19 -8 28 2 40 24 29 116 45 138 23z"/>
<path d="M2852 1065 c-11 -23 -11 -27 0 -18 9 7 30 3 73 -17 l60 -27 -75 -17
c-41 -10 -82 -20 -90 -23 -9 -3 14 -18 58 -38 39 -19 72 -40 72 -47 0 -9 3 -9
10 2 12 18 13 31 3 28 -13 -3 -83 23 -83 31 0 4 26 12 58 19 47 10 61 17 70
38 14 29 16 45 4 26 -11 -16 -140 36 -144 57 -2 9 -8 3 -16 -14z"/>
<path d="M1217 1004 c-26 -14 -52 -22 -57 -19 -12 8 -13 -5 -1 -23 7 -11 9
-11 13 0 3 7 32 24 63 37 65 27 90 21 90 -20 0 -18 -12 -30 -50 -51 -27 -16
-58 -26 -68 -24 -14 4 -17 1 -12 -12 4 -9 10 -25 12 -34 3 -10 10 -18 15 -18
5 0 6 4 3 10 -3 5 21 23 54 39 76 39 87 72 43 124 -20 23 -48 21 -105 -9z"/>
<path d="M2773 900 c-7 -11 -13 -22 -13 -25 0 -2 6 -2 13 0 6 3 34 -11 61 -30
l50 -35 -87 0 c-48 0 -87 -4 -87 -9 0 -5 26 -29 58 -53 38 -27 57 -48 54 -58
-3 -8 -3 -13 -1 -10 2 3 12 15 23 27 17 21 17 21 -1 17 -10 -3 -31 6 -48 20
l-30 25 61 1 c46 0 65 4 77 18 19 20 23 37 7 27 -12 -7 -118 71 -122 91 -2 11
-6 10 -15 -6z"/>
<path d="M1357 885 c-22 -16 -22 -24 2 -18 29 7 61 -14 61 -42 0 -23 -35 -57
-87 -84 -19 -10 -26 -8 -44 10 -11 11 -18 27 -15 35 21 50 21 50 -2 30 -19
-17 -20 -21 -7 -45 20 -40 40 -53 81 -54 29 -1 42 5 65 31 38 42 37 75 -4 117
-28 28 -35 31 -50 20z"/>
<path d="M2664 759 c-13 -15 -14 -20 -4 -17 20 4 25 -36 6 -51 -21 -18 -59 -4
-51 17 4 10 -7 4 -24 -12 -31 -30 -40 -43 -21 -31 6 3 43 -12 84 -34 40 -22
75 -38 78 -35 3 3 -7 40 -23 82 -16 42 -27 83 -24 90 6 17 1 15 -21 -9z m37
-85 c12 -34 8 -37 -20 -18 -17 13 -20 19 -10 30 16 19 18 18 30 -12z"/>
<path d="M1450 730 c-25 -25 -25 -35 1 -76 22 -37 19 -54 -11 -54 -23 0 -42
32 -34 57 5 16 4 16 -10 -1 -14 -18 -14 -21 1 -39 31 -34 52 -40 79 -22 29 19
30 38 4 80 -19 30 -19 34 -5 49 21 21 28 20 50 -4 12 -14 15 -27 10 -47 -6
-27 -6 -27 14 -9 20 18 20 20 4 40 -43 52 -70 59 -103 26z"/>
<path d="M1799 546 c15 -18 -24 -144 -47 -148 -9 -2 1 -9 25 -15 34 -9 40 -8
36 3 -3 8 -2 25 1 39 6 23 10 25 44 19 38 -6 72 12 72 37 0 14 -38 49 -52 48
-10 0 -10 -2 0 -6 16 -6 15 -48 -2 -62 -7 -6 -21 -8 -31 -5 -13 5 -15 14 -11
37 4 17 11 34 16 37 6 4 -6 11 -25 17 -29 9 -34 9 -26 -1z"/>
<path d="M2296 508 c-3 -13 -6 -39 -6 -58 0 -19 -4 -50 -9 -68 -10 -34 -8 -36
24 -22 17 7 17 9 3 9 -18 1 -24 21 -11 35 4 4 6 24 5 44 l-3 37 21 -24 c16
-19 18 -26 8 -32 -10 -7 -9 -9 3 -9 9 0 22 -7 30 -16 10 -13 10 -17 -2 -25
-20 -13 0 -10 41 6 19 7 29 14 22 14 -6 1 -33 30 -59 66 -26 36 -50 65 -54 65
-4 0 -9 -10 -13 -22z"/>
<path d="M1976 504 c14 -6 -3 -146 -19 -156 -7 -5 -2 -8 15 -8 14 0 35 -3 45
-6 14 -5 15 -4 4 4 -11 8 -12 25 -7 77 4 37 8 72 9 79 1 6 -11 12 -28 13 -16
1 -25 0 -19 -3z"/>
<path d="M2105 493 c-19 -19 -16 -63 5 -74 8 -4 28 -10 43 -14 34 -7 45 -31
24 -52 -20 -21 -60 -10 -75 19 -10 22 -11 22 -11 -8 -1 -29 1 -31 39 -32 28
-1 46 4 60 18 39 39 19 82 -45 94 -30 6 -36 11 -33 29 4 31 42 34 62 5 l16
-22 0 25 c0 22 -4 26 -35 27 -19 1 -41 -5 -50 -15z"/>
</g>
</svg>
