<?xml version="1.0" standalone="no"?>
<!DOCTYPE svg PUBLIC "-//W3C//DTD SVG 20010904//EN"
 "http://www.w3.org/TR/2001/REC-SVG-20010904/DTD/svg10.dtd">
<svg version="1.0" xmlns="http://www.w3.org/2000/svg"
 width="1000.000000pt" height="1000.000000pt" viewBox="0 0 1000.000000 1000.000000"
 preserveAspectRatio="xMidYMid meet">

<g transform="translate(0.000000,1000.000000) scale(0.100000,-0.100000)"
fill="#000000" stroke="none">
<path d="M4698 9753 c-64 -4 -80 -23 -20 -23 66 0 64 7 75 -272 6 -140 8 -262
4 -271 -4 -12 -18 -17 -47 -17 -30 0 -40 -4 -40 -16 0 -14 7 -15 38 -10 20 3
81 6 135 6 79 0 97 3 97 15 0 11 -11 15 -40 15 -27 0 -42 5 -48 18 -5 9 -13
100 -16 202 -4 102 -9 212 -12 245 -2 33 -1 66 4 73 5 8 28 16 51 19 22 3 41
10 41 14 0 9 -101 9 -222 2z"/>
<path d="M5270 9751 c-78 -25 -146 -86 -181 -161 -30 -63 -38 -199 -15 -268
70 -208 319 -261 463 -98 55 62 78 130 78 231 0 65 -5 90 -26 135 -48 103
-129 160 -234 166 -33 2 -71 0 -85 -5z m160 -40 c71 -45 95 -121 87 -271 -8
-148 -39 -223 -110 -265 -100 -58 -208 -7 -244 115 -30 103 -1 305 53 377 51
68 147 87 214 44z"/>
<path d="M4116 9682 c-97 -17 -161 -32 -163 -39 -4 -10 7 -11 39 -7 31 4 47 2
55 -7 6 -8 29 -126 52 -264 l41 -250 -21 -17 c-12 -10 -32 -18 -45 -18 -13 0
-24 -6 -24 -13 0 -18 262 23 268 42 3 10 -7 11 -41 6 -29 -5 -47 -3 -52 4 -4
7 -15 66 -26 133 -22 139 -23 138 59 138 73 0 100 -28 137 -140 33 -103 51
-125 105 -125 55 0 81 29 88 94 3 34 1 51 -7 51 -6 0 -11 -15 -11 -32 0 -42
-12 -61 -36 -56 -12 2 -33 33 -60 87 -47 95 -69 118 -125 127 -38 6 -55 24
-24 24 9 0 38 11 65 25 58 29 80 65 80 129 0 78 -73 138 -165 135 -16 0 -102
-13 -189 -27z m209 -12 c17 -6 33 -26 47 -56 42 -96 3 -168 -103 -192 -99 -23
-94 -27 -115 103 -13 86 -15 118 -6 127 23 23 134 34 177 18z"/>
<path d="M5810 9687 c0 -7 17 -18 38 -23 27 -6 38 -15 40 -31 3 -20 -103 -487
-115 -507 -3 -4 -28 -6 -55 -3 -36 5 -48 3 -45 -6 6 -19 265 -77 271 -61 3 8
-9 15 -35 19 -22 4 -43 14 -46 22 -3 8 7 70 22 138 l28 124 31 -6 c45 -9 81
-29 106 -60 21 -26 22 -35 16 -129 -7 -113 1 -145 41 -163 33 -15 65 -14 91 5
22 15 52 63 52 84 0 21 -18 9 -30 -19 -14 -35 -38 -47 -56 -29 -7 7 -16 59
-22 116 -8 86 -13 107 -32 127 -13 14 -31 27 -42 31 -36 11 -17 22 40 21 70 0
109 17 140 63 52 77 5 181 -97 215 -25 8 -104 28 -176 45 -71 17 -138 33 -147
36 -11 3 -18 0 -18 -9z m318 -94 c48 -23 65 -69 50 -136 -18 -88 -90 -117
-214 -86 -34 9 -43 15 -40 28 3 9 15 59 27 111 12 52 24 99 27 104 8 13 108 0
150 -21z"/>
<path d="M3523 9528 c-205 -66 -262 -94 -169 -82 l44 6 30 -93 c111 -340 131
-409 126 -422 -3 -9 -19 -20 -35 -26 -16 -5 -29 -15 -29 -20 0 -6 2 -11 5 -11
3 0 140 43 412 131 l61 20 -27 101 c-33 121 -51 138 -50 46 1 -119 -36 -162
-175 -202 -49 -14 -61 -15 -71 -4 -7 7 -29 65 -49 128 -38 124 -38 124 23 136
42 8 77 -9 106 -52 11 -16 25 -30 30 -31 12 -1 15 -11 -30 135 -38 123 -64
160 -57 81 7 -65 -21 -100 -95 -123 -21 -7 -24 1 -58 110 -31 97 -35 119 -23
129 16 17 141 55 177 55 40 0 88 -35 119 -85 26 -44 42 -56 42 -34 0 7 -14 50
-32 95 -22 58 -36 84 -47 83 -9 -1 -112 -32 -228 -71z"/>
<path d="M6520 9500 c0 -5 16 -16 35 -24 19 -8 35 -21 35 -28 0 -21 -181 -471
-196 -487 -11 -12 -20 -12 -49 -4 -40 13 -59 -1 -23 -17 13 -6 118 -48 233
-94 l210 -85 38 82 c55 116 59 127 44 126 -6 0 -26 -19 -42 -42 -18 -25 -50
-52 -78 -66 -44 -21 -54 -23 -95 -13 -68 15 -141 49 -149 68 -3 8 10 57 30
107 20 51 41 104 46 120 l11 28 40 -21 c58 -29 74 -59 66 -120 -13 -100 9 -60
111 198 10 23 -24 12 -35 -13 -23 -50 -108 -68 -155 -32 -14 11 -11 22 26 116
23 57 49 108 57 113 10 7 40 -1 95 -24 107 -45 129 -75 122 -171 -3 -45 -1
-67 6 -64 9 3 67 157 67 177 0 6 -428 180 -443 180 -4 0 -7 -4 -7 -10z"/>
<path d="M3050 9332 c-19 -2 -107 -37 -195 -79 -184 -87 -169 -79 -161 -92 5
-7 19 -4 42 6 24 12 40 14 50 8 16 -10 233 -450 234 -473 0 -7 -16 -22 -35
-33 -32 -19 -46 -39 -27 -39 18 0 252 120 252 129 0 14 -10 13 -40 -4 -54 -31
-66 -23 -120 85 -27 55 -50 103 -50 108 0 5 28 22 62 38 70 32 132 83 154 125
20 40 18 108 -6 146 -33 54 -91 82 -160 75z m38 -58 c27 -18 72 -108 72 -144
-1 -14 -7 -36 -14 -49 -16 -28 -133 -103 -155 -99 -8 2 -39 56 -70 122 l-55
118 28 23 c37 30 114 56 146 49 14 -3 35 -12 48 -20z"/>
<path d="M2462 9037 c-89 -61 -108 -89 -44 -65 45 17 69 -4 175 -153 134 -189
148 -229 104 -301 -65 -108 -190 -134 -264 -56 -46 50 -233 326 -233 345 0 9
14 28 32 43 17 15 27 29 22 32 -5 3 -60 -29 -122 -72 -65 -45 -109 -81 -102
-85 6 -4 22 1 36 10 47 31 60 19 188 -165 103 -150 128 -178 166 -198 53 -27
106 -25 173 9 108 55 157 121 157 210 0 62 -4 69 -137 265 -51 74 -93 144 -93
154 0 10 11 32 25 48 44 52 11 44 -83 -21z"/>
<path d="M7435 9041 c-47 -12 -84 -40 -110 -86 -48 -81 -31 -131 85 -261 90
-101 102 -149 52 -205 -58 -65 -172 -44 -229 43 -25 37 -28 51 -28 122 0 45 4
91 8 104 6 16 5 22 -5 22 -13 -1 -120 -159 -127 -188 -2 -11 4 -14 25 -9 16 3
36 8 44 12 11 4 21 -6 34 -34 33 -77 129 -141 209 -141 67 0 149 64 168 132
15 57 -3 104 -68 181 -106 125 -123 148 -123 173 0 57 55 114 111 114 13 0 41
-9 64 -20 71 -35 107 -127 85 -219 -20 -84 -1 -77 60 21 59 94 62 116 13 97
-36 -13 -40 -12 -51 19 -29 84 -134 143 -217 123z"/>
<path d="M7842 8468 c-184 -94 -280 -138 -293 -134 -10 3 -28 9 -39 12 -38 12
-20 -15 56 -81 75 -66 117 -80 69 -23 -14 16 -25 36 -25 44 0 21 42 57 89 79
l41 18 52 -46 c29 -24 71 -60 92 -79 l39 -34 -25 -74 c-28 -84 -43 -95 -88
-61 -19 14 -30 17 -32 9 -5 -13 155 -158 173 -158 6 0 9 3 7 8 -2 4 -10 19
-17 34 -12 24 -6 48 89 318 61 172 99 294 94 300 -5 5 -123 -50 -282 -132z
m188 56 c0 -6 -91 -267 -95 -272 -1 -1 -39 30 -84 69 -55 48 -79 75 -73 81 12
12 233 127 245 128 4 0 7 -3 7 -6z"/>
<path d="M1857 8593 c-4 -4 -5 -21 -1 -38 6 -31 5 -32 -36 -38 -79 -10 -152
-78 -166 -155 -14 -73 43 -169 112 -192 51 -17 93 -6 216 57 91 47 115 55 145
50 44 -8 69 -29 83 -73 16 -47 4 -89 -37 -135 -61 -67 -163 -81 -260 -34 -90
44 -84 30 41 -102 27 -29 53 -50 58 -47 4 3 8 23 8 44 0 35 3 40 28 46 92 20
141 55 177 127 29 59 31 93 10 145 -30 71 -86 112 -153 112 -28 0 -72 -17
-157 -61 -99 -51 -125 -60 -153 -55 -44 7 -69 30 -83 77 -10 32 -9 43 10 83
42 85 155 110 259 57 48 -25 52 -25 52 -8 0 12 -129 147 -141 147 -3 0 -9 -3
-12 -7z"/>
<path d="M4947 8579 c-28 -17 -49 -73 -38 -103 8 -18 6 -26 -5 -30 -22 -9 -46
-74 -39 -107 4 -16 20 -43 36 -60 l30 -32 -43 -45 c-138 -141 -497 -462 -518
-462 -4 0 -3 13 2 28 14 36 4 77 -27 108 -13 13 -19 26 -14 29 5 4 9 22 9 41
0 47 -29 74 -80 74 -34 0 -42 -4 -56 -31 -9 -17 -14 -43 -11 -57 3 -16 -2 -36
-13 -51 -33 -45 -30 -108 6 -147 24 -25 27 -35 25 -94 -4 -137 -39 -186 -128
-177 -66 7 -76 13 -63 37 21 39 -1 140 -30 140 -6 0 -7 19 -3 45 7 57 -7 75
-58 75 -30 0 -42 -6 -55 -25 -9 -13 -13 -33 -9 -44 4 -13 -2 -27 -20 -45 -42
-42 -33 -124 20 -171 l23 -20 -11 -587 -10 -588 -24 0 c-15 0 -27 8 -32 23
-11 28 -81 78 -163 117 -53 25 -75 30 -138 30 -95 0 -182 -14 -228 -37 -45
-22 -77 -80 -87 -158 l-7 -56 -56 53 c-78 74 -194 157 -234 169 -46 13 -87 11
-176 -7 -110 -23 -178 -58 -208 -110 -53 -89 -52 -289 1 -380 26 -45 118 -121
183 -152 17 -9 32 -21 32 -26 0 -6 -32 -24 -72 -39 -140 -54 -244 -141 -287
-239 -47 -105 -76 -362 -68 -593 7 -228 27 -255 181 -255 l75 0 5 -42 c3 -24
12 -221 21 -438 8 -217 18 -430 21 -474 l6 -79 -24 7 c-52 16 -163 18 -182 3
-26 -19 -28 -129 -3 -167 8 -14 29 -62 46 -108 55 -150 68 -162 179 -177 29
-4 52 -12 52 -18 0 -7 7 -77 16 -157 l16 -145 -61 -220 c-34 -121 -67 -222
-73 -224 -26 -9 -57 -51 -63 -85 -10 -51 0 -81 38 -108 l32 -23 1230 -8 c752
-4 1502 -3 1930 3 385 5 897 10 1138 10 489 0 488 0 506 65 12 45 5 73 -29
110 -24 26 -38 73 -105 350 -43 176 -78 326 -79 334 -1 8 22 20 59 31 185 53
170 44 218 123 24 40 61 103 81 140 l37 68 -21 63 c-34 104 -33 104 -132 83
-45 -9 -86 -17 -89 -17 -3 0 -9 41 -13 91 -4 51 -16 135 -27 188 -36 176 -43
149 55 232 54 45 89 83 92 99 4 14 12 50 20 81 8 31 14 61 14 67 0 5 -18 32
-41 61 l-40 51 41 197 c22 108 45 200 50 203 6 3 44 12 85 19 52 8 84 20 103
36 25 22 27 28 26 102 -2 81 -68 430 -104 547 -31 98 -64 136 -172 194 -51 27
-123 59 -159 71 l-67 22 -42 122 c-61 178 -94 240 -159 306 -69 71 -116 101
-157 101 -18 0 -76 -11 -130 -25 l-97 -26 -60 62 c-33 34 -75 67 -93 75 -46
19 -166 29 -202 16 -31 -11 -31 -11 -36 31 -3 23 -15 259 -27 525 -19 444 -20
484 -5 507 23 34 20 69 -8 102 -17 20 -22 34 -15 44 27 43 -15 109 -70 109
-43 0 -72 -34 -71 -85 1 -22 -5 -58 -13 -80 -13 -35 -13 -45 -1 -74 8 -18 14
-35 14 -37 0 -2 -20 -4 -44 -4 -28 0 -52 7 -69 20 -33 26 -65 113 -73 198 -6
66 -6 67 25 90 27 20 31 28 31 70 -1 50 -12 72 -47 91 -14 7 -20 17 -16 26 7
21 -16 74 -38 85 -49 27 -99 -7 -99 -65 0 -21 -9 -48 -21 -65 -27 -35 -21 -91
12 -126 20 -21 20 -24 5 -24 -9 0 -152 113 -316 252 -272 229 -297 253 -281
265 48 33 41 108 -13 151 -23 17 -25 24 -17 41 19 35 13 71 -18 102 -31 30
-63 36 -94 18z m51 -73 c-4 -31 -38 -34 -38 -3 0 29 7 37 27 30 8 -3 13 -15
11 -27z m43 -103 c24 -63 -11 -105 -73 -90 -35 9 -56 59 -38 93 11 20 21 24
57 24 38 0 45 -3 54 -27z m71 -286 c463 -425 523 -468 606 -439 l30 10 7 -61
c9 -80 48 -193 77 -224 32 -34 71 -53 109 -53 42 0 116 36 130 63 11 19 12 19
21 3 14 -24 17 -102 28 -621 l10 -459 -39 -56 c-21 -30 -40 -62 -43 -70 -8
-24 -17 213 -24 603 -4 196 -8 357 -8 357 -1 0 -19 -9 -41 -20 -61 -31 -90
-27 -124 20 -15 21 -34 53 -41 70 -7 16 -16 30 -21 30 -5 0 -9 -139 -9 -312
l0 -312 -34 33 -33 32 -7 142 c-4 78 -14 234 -21 347 -8 113 -15 207 -15 210
0 11 -534 503 -637 587 -33 27 -46 32 -60 24 -20 -10 -211 -204 -455 -463
l-148 -155 0 -318 0 -317 -27 -32 c-16 -17 -36 -43 -45 -56 -16 -24 -17 -12
-18 250 -1 151 -5 299 -8 327 l-7 53 -43 -64 c-75 -111 -110 -134 -163 -106
-19 11 -19 3 -19 -409 0 -231 -3 -426 -6 -435 -4 -10 -18 -16 -35 -16 l-29 0
0 128 c0 70 -5 327 -11 571 -5 244 -8 445 -6 448 3 2 21 -7 41 -21 43 -29 134
-50 175 -41 58 13 103 92 120 213 5 41 12 76 14 79 3 2 23 -5 46 -16 22 -12
42 -21 44 -21 1 0 135 137 297 305 161 168 295 305 297 305 1 0 58 -51 125
-113z m-832 -162 c0 -7 -7 -18 -15 -25 -12 -10 -16 -9 -21 4 -9 24 3 47 21 40
8 -3 15 -12 15 -19z m1503 11 c3 -12 -30 -32 -39 -24 -11 12 5 40 21 36 9 -2
17 -7 18 -12z m-455 -305 l302 -254 0 -308 c0 -170 -2 -309 -5 -309 -2 0 -43
27 -89 61 l-85 60 5 222 6 222 -139 117 -138 116 0 47 c0 61 -13 70 -123 84
-141 18 -195 12 -307 -35 -11 -4 36 53 105 128 121 132 125 135 145 119 12 -9
157 -130 323 -270z m492 221 c5 -13 10 -34 10 -47 0 -51 -88 -61 -123 -13 -17
23 -18 31 -8 55 10 25 16 28 61 28 42 0 51 -3 60 -23z m-1501 -38 c11 -41 2
-67 -29 -84 -27 -14 -37 -13 -60 10 -23 23 -26 61 -8 90 9 14 24 20 50 20 34
0 38 -3 47 -36z m-379 -145 c0 -14 -5 -19 -17 -17 -26 5 -29 38 -4 38 15 0 21
-6 21 -21z m2166 -30 c10 -17 -23 -46 -37 -32 -7 7 -9 19 -6 27 7 18 33 21 43
5z m-1008 -15 c12 -8 22 -25 22 -36 0 -20 -3 -21 -109 -15 -106 6 -112 5 -212
-28 -57 -19 -105 -35 -107 -35 -2 0 -2 15 0 32 3 37 35 57 131 83 74 20 246
20 275 -1z m-1129 -45 c15 -43 14 -55 -5 -73 -24 -25 -69 -20 -93 10 -12 15
-21 30 -21 34 0 4 9 19 21 34 15 19 30 26 54 26 28 0 35 -5 44 -31z m2182 -44
c13 -33 10 -44 -16 -61 -45 -29 -95 5 -95 66 0 16 7 18 52 17 41 -2 53 -6 59
-22z m-1530 -52 c-17 -59 -14 -133 4 -133 13 0 15 -30 15 -209 l0 -209 -52
-33 c-29 -18 -79 -53 -111 -77 l-59 -44 8 188 c3 104 9 228 13 276 l6 87 90
99 c50 55 91 98 93 97 2 -2 -1 -20 -7 -42z m480 41 c25 -4 40 -14 48 -30 10
-22 9 -23 -22 -16 -18 4 -84 7 -147 7 -114 0 -116 0 -185 -37 -38 -21 -73 -38
-77 -38 -4 0 -8 11 -8 24 0 21 10 28 78 54 42 17 86 32 97 35 30 7 175 8 216
1z m26 -90 c14 -4 24 -17 28 -36 9 -40 22 -318 15 -327 -3 -4 -33 -29 -68 -56
-71 -55 -134 -71 -209 -53 -60 15 -78 37 -97 120 -19 83 -57 301 -53 304 1 1
29 9 62 19 95 27 270 43 322 29z m112 -161 c44 -148 47 -183 22 -224 -12 -19
-21 -31 -21 -28 0 16 -50 365 -55 383 -4 16 -2 15 9 -5 8 -14 28 -70 45 -126z
m79 88 l69 -59 7 -188 c3 -103 4 -189 2 -191 -2 -3 -31 5 -65 17 l-60 22 42
32 c69 53 69 60 -5 255 -36 94 -64 171 -62 171 2 0 34 -27 72 -59z m-558 -344
c8 -24 6 -29 -19 -42 -16 -8 -31 -11 -35 -8 -3 4 -6 83 -5 177 l1 171 24 -135
c13 -74 28 -147 34 -163z m-586 -544 c-31 -46 -58 -83 -60 -83 -2 0 -4 140 -4
310 l0 310 25 0 c20 0 33 11 58 52 l32 51 3 -279 2 -279 -56 -82z m1693 577
c23 -21 44 -30 68 -30 l35 0 0 -413 c0 -228 3 -501 7 -609 l6 -194 -72 -63
c-40 -34 -74 -61 -76 -59 -1 2 -5 96 -9 210 -7 202 -6 207 14 213 28 9 28 77
0 105 -25 25 -26 24 9 80 16 26 37 69 46 96 l16 47 -35 57 -35 56 -6 245 c-3
134 -8 254 -11 267 -6 29 2 28 43 -8z m-689 -71 c-2 -17 -19 -26 -78 -45 -41
-13 -77 -24 -80 -24 -3 0 29 20 70 45 41 25 79 45 83 45 5 0 7 -9 5 -21z
m-270 -54 c40 -12 69 -24 65 -28 -13 -13 -78 -7 -145 15 -64 21 -67 23 -46 35
13 7 30 10 38 6 8 -3 48 -16 88 -28z m-109 -56 c96 -25 185 -24 291 2 47 11
119 23 160 26 l75 5 57 -43 c31 -24 59 -49 62 -55 4 -11 -29 -142 -38 -152 -6
-6 -136 77 -136 87 0 4 32 17 71 30 39 12 69 24 67 26 -2 2 -79 -10 -173 -26
-93 -16 -231 -33 -307 -38 -134 -9 -138 -9 -263 23 l-127 31 79 57 c46 34 84
55 93 52 8 -3 48 -14 89 -25z m-183 -146 c57 -20 104 -41 104 -46 0 -10 -121
-160 -125 -155 -6 6 -95 223 -95 230 0 12 4 11 116 -29z m1146 -246 c59 -75
49 -145 -29 -204 -34 -26 -44 -28 -137 -30 -100 -3 -105 1 -35 26 24 8 27 16
33 78 4 37 14 110 22 161 9 51 13 96 10 99 -3 4 -47 -3 -96 -14 -50 -11 -90
-19 -90 -19 0 2 41 150 47 171 5 17 24 1 121 -100 63 -66 132 -142 154 -168z
m-1264 134 l31 -114 -42 7 c-23 3 -81 9 -129 13 -85 6 -87 7 -76 27 21 40 175
193 184 183 1 -1 16 -53 32 -116z m701 22 c-23 -54 -44 -102 -48 -106 -5 -5
-30 26 -56 68 -26 42 -45 78 -43 81 6 6 159 52 175 53 7 1 -4 -38 -28 -96z
m-211 29 c-1 -5 -16 -43 -33 -85 -16 -42 -33 -77 -36 -77 -4 0 -28 35 -53 78
l-45 77 32 6 c49 10 139 10 135 1z m338 -38 c35 -25 66 -49 69 -54 3 -4 -32
-18 -77 -30 -44 -12 -87 -24 -93 -27 -10 -3 -10 11 1 64 16 78 21 93 29 93 4
0 35 -21 71 -46z m-486 -114 c46 -61 87 -110 90 -109 3 0 25 43 50 96 l46 96
46 -62 47 -63 -75 -60 c-41 -33 -80 -68 -88 -79 -13 -19 -17 -18 -105 36 -51
31 -123 68 -161 84 l-68 27 61 72 c34 40 64 72 67 72 3 -1 43 -50 90 -110z
m721 -2 c-8 -22 -20 -28 -88 -42 -164 -35 -293 -92 -450 -198 -40 -26 -76 -48
-81 -48 -5 0 -65 28 -133 63 -161 81 -232 104 -371 118 -62 6 -119 13 -125 15
-12 3 -19 64 -8 64 21 0 323 -72 375 -90 36 -12 111 -46 168 -75 l102 -53 28
22 c48 41 172 117 240 149 37 16 130 51 207 77 145 50 156 49 136 -2z m-1296
-128 c22 -139 26 -130 -50 -130 -36 0 -65 4 -65 9 0 5 20 55 45 112 25 57 45
106 45 108 0 2 2 2 5 0 2 -3 11 -47 20 -99z m1254 -10 c-12 -34 6 -28 -234
-80 -104 -23 -212 -48 -239 -56 -74 -21 -77 -17 -17 21 157 100 282 143 423
144 l77 1 -10 -30z m-1914 -29 c44 -27 92 -62 108 -78 27 -29 27 -31 32 -189
5 -159 5 -159 -10 -94 -37 158 -41 168 -93 193 -26 13 -75 34 -110 47 l-63 23
7 46 c7 48 29 101 42 101 4 0 44 -22 87 -49z m985 -6 c56 -15 242 -86 237 -91
-1 -2 -50 11 -107 29 -98 30 -114 32 -252 32 -110 -1 -148 2 -148 11 0 7 -3
20 -7 30 -6 16 2 17 108 11 63 -4 139 -14 169 -22z m-1180 -47 c15 -77 20 -85
73 -93 23 -4 70 -16 104 -27 69 -21 69 -21 93 -148 22 -115 11 -146 -89 -248
-35 -36 -45 -41 -69 -36 -21 5 -138 59 -150 69 -4 3 -83 328 -80 330 2 1 25 8
53 14 56 14 75 26 75 49 0 15 -29 14 -119 -4 l-34 -7 7 43 c9 57 21 77 59 100
53 33 63 27 77 -42z m-522 46 c13 -4 22 -10 20 -15 -2 -5 -39 -50 -84 -101
-135 -156 -154 -184 -154 -231 0 -23 7 -67 15 -97 8 -30 12 -56 10 -58 -7 -8
-94 58 -112 86 -35 51 -43 83 -43 178 0 117 14 154 66 179 118 57 214 77 282
59z m3549 -11 c12 -3 40 -29 63 -59 35 -47 39 -56 28 -74 -16 -25 -17 -25
-122 0 -74 17 -95 18 -171 8 -47 -6 -88 -8 -91 -5 -4 3 18 38 47 77 l54 71 85
-6 c47 -4 95 -9 107 -12z m-3369 -111 c41 -36 81 -76 89 -89 14 -21 14 -25 -1
-42 -13 -15 -16 -29 -10 -68 l6 -49 -41 -14 c-50 -16 -43 -33 13 -28 l41 3 3
-41 3 -41 -88 -41 c-49 -22 -101 -42 -118 -44 -26 -3 -32 2 -48 37 -37 76 -87
246 -87 293 0 76 57 176 110 195 28 10 54 -5 128 -71z m3831 -16 c29 -29 49
-56 44 -58 -14 -9 -203 -31 -209 -25 -3 3 1 28 10 55 14 42 23 53 54 66 20 8
39 15 42 15 3 1 30 -23 59 -53z m-2085 -22 c32 -14 56 -28 54 -29 -2 -2 -221
-1 -486 2 l-482 6 0 24 0 23 429 0 429 0 56 -26z m969 20 c2 -3 2 -16 -1 -29
l-4 -25 -397 1 c-388 0 -395 1 -346 18 28 9 59 22 70 29 15 9 109 12 347 11
180 -1 329 -3 331 -5z m907 -8 c0 -2 -13 -33 -30 -67 -33 -70 -136 -203 -151
-194 -29 19 14 158 65 209 32 31 116 69 116 52z m-309 -32 c35 -15 74 -30 86
-35 l22 -8 -25 -73 c-21 -59 -25 -88 -22 -153 l3 -80 -76 -39 -76 -38 -45 19
c-60 27 -112 75 -138 127 -16 34 -21 63 -21 128 0 129 14 148 131 167 85 13
92 13 161 -15z m618 -73 c18 -28 46 -99 66 -167 l34 -119 -23 -25 c-13 -14
-28 -34 -34 -45 -9 -16 -11 -8 -12 46 0 70 -17 129 -69 243 -29 64 -30 71 -16
93 9 12 17 23 19 23 2 0 18 -22 35 -49z m-3690 -183 c6 -17 9 -33 7 -35 -2 -2
-21 39 -41 91 -34 89 -36 98 -24 133 l13 38 17 -98 c10 -54 22 -112 28 -129z
m2276 180 c5 -15 37 -990 32 -994 -2 -2 -19 1 -38 5 -19 5 -61 12 -93 16 l-59
7 6 141 c4 78 10 269 13 424 l7 281 -49 8 c-27 4 -188 2 -359 -5 -170 -6 -444
-11 -608 -11 l-299 0 4 -230 c1 -126 7 -230 11 -230 5 0 143 88 307 196 l299
195 300 -221 c166 -122 301 -225 301 -228 -1 -4 -110 -86 -243 -182 -275 -199
-258 -193 -392 -144 -60 21 -143 70 -326 190 l-246 161 1 -211 1 -211 118 -3
118 -3 -19 -27 c-59 -84 -102 -211 -102 -303 0 -44 5 -58 27 -81 19 -20 22
-28 11 -28 -25 0 -152 -95 -197 -147 l-41 -48 0 34 c0 23 14 54 44 100 74 110
75 116 37 155 l-32 33 15 57 c28 105 -10 136 -84 70 l-40 -36 0 635 0 636 108
4 c59 1 412 4 785 5 535 2 679 -1 682 -10z m185 -208 l0 -220 -29 0 c-28 0
-29 -1 -35 -67 -7 -79 9 -529 20 -558 7 -18 4 -17 -27 6 l-34 27 2 383 c1 211
5 444 8 517 l7 132 44 0 44 0 0 -220z m-1845 79 c4 -71 4 -133 1 -136 -3 -4
-34 7 -67 23 l-61 29 6 77 c12 139 11 138 66 138 l48 0 7 -131z m2995 89 c18
-41 70 -278 70 -318 0 -78 -91 -140 -204 -140 -39 0 -46 5 -132 95 -77 80 -93
103 -106 149 l-15 55 64 52 c35 28 70 61 78 73 11 15 37 25 98 37 118 24 136
23 147 -3z m-3629 -207 l42 -35 -64 -18 c-77 -22 -80 -22 -103 -5 -17 13 -16
15 18 36 43 27 45 45 16 132 -13 37 -18 69 -14 82 6 17 14 2 35 -68 25 -78 34
-94 70 -124z m-514 151 c38 -56 96 -179 91 -194 -2 -6 -34 18 -71 53 l-67 64
0 63 c0 34 3 62 8 62 4 0 21 -21 39 -48z m1857 -81 c-35 -34 -438 -350 -442
-347 -2 3 2 84 9 180 l12 176 216 0 c131 0 211 -4 205 -9z m732 -4 c2 -7 3
-89 2 -183 l-3 -170 -258 177 c-142 97 -261 179 -264 183 -3 3 112 6 256 6
204 0 263 -3 267 -13z m-1642 -214 c-29 -21 -108 -16 -129 7 -21 23 -25 18 70
99 l70 59 3 -76 c2 -63 0 -79 -14 -89z m-893 46 l27 -25 -41 5 c-40 6 -41 7
-53 60 l-12 54 26 -34 c15 -19 38 -45 53 -60z m3349 -14 c67 -67 89 -84 105
-79 11 4 61 31 112 60 51 30 94 54 98 54 11 0 63 -65 57 -72 -16 -14 -221 -78
-254 -78 -28 0 -54 13 -114 56 -44 31 -91 68 -106 82 -26 24 -27 27 -11 44 9
10 19 18 22 18 4 0 44 -38 91 -85z m-2297 36 l47 -20 0 -66 c0 -36 -2 -65 -5
-65 -3 0 -34 21 -70 47 -64 46 -65 47 -65 95 0 53 -7 53 93 9z m-795 -13 c-22
-34 -57 -48 -118 -48 l-55 0 65 24 c36 13 76 28 90 34 34 15 34 15 18 -10z
m342 -9 c34 -21 50 -37 48 -48 -5 -20 -19 -18 -127 22 l-85 30 39 13 c60 18
70 17 125 -17z m-67 -149 c5 -4 -25 -20 -66 -35 -72 -26 -77 -26 -168 -15 -52
6 -161 26 -244 45 -82 20 -161 38 -174 41 -23 5 -23 4 -17 -58 9 -89 9 -219
-2 -393 -6 -90 -6 -157 0 -167 6 -13 21 -18 53 -18 42 0 45 -2 45 -27 0 -16 9
-68 19 -118 11 -49 16 -93 13 -97 -13 -13 -257 -70 -324 -75 -81 -7 -125 8
-135 45 -17 68 19 438 59 601 15 65 73 177 118 231 22 26 76 69 125 99 l87 53
77 -30 c201 -79 227 -79 264 1 14 28 27 60 31 70 5 15 23 5 118 -64 62 -45
117 -85 121 -89z m2687 94 c45 -17 101 -50 152 -89 l80 -61 82 32 c44 18 101
36 126 39 l45 5 -41 -19 c-87 -40 -281 -105 -314 -105 -22 0 -86 25 -175 68
l-140 67 50 45 c28 24 53 44 57 44 4 0 39 -12 78 -26z m1172 7 c167 -35 257
-82 285 -149 32 -77 93 -473 93 -605 0 -56 -15 -72 -77 -85 -107 -23 -188 -25
-244 -7 -30 10 -55 19 -57 20 -2 2 12 26 32 54 19 29 38 60 41 71 4 11 25 29
48 39 23 11 55 33 72 51 l29 31 -43 -16 c-24 -8 -44 -15 -45 -15 0 0 1 94 3
210 2 172 1 210 -10 210 -8 0 -99 -27 -203 -60 -105 -33 -192 -58 -193 -56 -2
2 -4 39 -5 83 0 97 14 133 78 196 56 54 62 55 196 28z m-3658 -16 c16 -24 15
-25 -8 -31 -36 -9 -47 2 -34 31 14 31 22 31 42 0z m366 -534 c0 -190 -4 -352
-8 -359 -6 -9 -16 -4 -37 18 -16 16 -32 30 -37 30 -4 0 -8 -53 -8 -117 0 -98
-3 -123 -19 -146 -18 -28 -19 -29 -33 -8 -8 11 -34 29 -59 39 -47 20 -109 67
-109 83 0 5 14 9 31 9 54 0 119 21 131 43 6 13 8 46 4 89 l-6 68 30 6 c16 4
30 10 30 14 0 5 -15 44 -34 88 -19 43 -43 114 -55 156 -36 131 -92 218 -148
232 -20 5 -23 11 -19 33 3 14 11 55 17 91 13 72 23 90 49 90 9 0 37 11 61 24
l44 23 88 -80 87 -79 0 -347z m2770 434 c65 -60 70 -61 149 -29 18 8 34 14 36
14 1 0 5 -35 8 -78 3 -43 9 -86 13 -95 9 -24 -6 -22 -137 17 -63 19 -134 40
-157 46 -33 8 -42 15 -38 26 3 9 6 44 6 79 0 62 1 64 28 68 15 2 28 5 30 6 1
0 29 -24 62 -54z m-3155 -42 c-15 -147 -13 -140 -49 -147 -43 -8 -195 -82
-225 -109 l-23 -22 7 105 c4 58 8 106 9 107 5 6 264 122 274 122 10 1 12 -12
7 -56z m2424 -29 c92 -31 169 -59 172 -63 10 -9 -26 -510 -37 -521 -6 -6 -65
9 -169 44 l-160 53 2 229 c2 224 8 314 21 314 3 0 80 -25 171 -56z m568 19
c-3 -21 -12 -94 -18 -162 l-13 -124 -144 -69 -145 -69 6 -33 c5 -31 -26 -132
-47 -153 -11 -11 -5 85 17 307 l22 214 80 28 c44 16 112 44 150 62 93 45 99
45 92 -1z m-3557 -18 c102 -19 188 -35 192 -35 9 0 19 -143 21 -306 2 -131 1
-140 -15 -130 -14 8 -30 4 -75 -19 -32 -16 -61 -31 -65 -33 -4 -2 -3 12 3 30
14 50 11 78 -7 78 -9 0 -41 -15 -72 -34 -76 -46 -118 -54 -127 -27 -5 17 -15
21 -52 21 l-45 0 6 33 c19 107 28 236 23 340 -5 106 -4 117 11 117 9 0 100
-16 202 -35z m4315 -197 c4 -62 5 -142 3 -178 -4 -64 -4 -65 -17 -33 -26 64
-56 117 -74 127 -15 9 -23 4 -50 -28 l-33 -39 -67 24 -66 24 -14 60 c-7 33
-11 63 -8 67 6 6 281 84 308 87 7 1 13 -36 18 -111z m-570 47 c55 -15 103 -30
108 -34 7 -7 37 -160 37 -189 0 -7 -29 17 -64 53 -58 59 -165 125 -203 125 -8
0 -13 15 -13 41 0 34 3 40 18 35 9 -3 62 -17 117 -31z m-2326 -124 l144 -96
-43 -7 c-24 -4 -53 -17 -65 -28 -18 -17 -35 -20 -117 -20 l-95 0 -6 63 c-4 34
-9 98 -13 142 l-7 79 29 -19 c16 -10 94 -62 173 -114z m981 -9 l0 -108 -52
-17 c-43 -15 -80 -17 -197 -15 l-144 3 194 122 c107 68 195 123 197 123 1 0 2
-49 2 -108z m1543 94 c3 -7 8 -33 11 -57 5 -35 2 -49 -14 -69 l-20 -25 0 45
c0 25 -3 62 -6 83 -5 29 -3 37 9 37 8 0 17 -6 20 -14z m-3329 -9 c17 -12 14
-16 -34 -36 -29 -12 -110 -58 -181 -102 -117 -71 -129 -77 -129 -56 1 59 54
128 130 167 69 36 182 50 214 27z m3085 -74 c84 -63 271 -373 224 -373 -5 0
-47 37 -94 83 l-86 82 13 -43 c16 -53 42 -92 107 -159 50 -52 50 -52 33 -78
l-17 -26 -47 39 c-65 55 -144 140 -174 187 -52 84 -110 291 -85 308 20 13 97
1 126 -20z m-3020 2 c-1 -5 -20 -17 -43 -26 -23 -8 -70 -36 -106 -61 -36 -25
-109 -70 -162 -101 -76 -44 -98 -52 -97 -39 0 20 158 124 293 194 87 45 119
54 115 33z m2851 -81 c-7 -21 -10 -59 -7 -90 4 -36 0 -70 -13 -111 -29 -90
-69 -194 -85 -217 -35 -49 -7 -109 57 -121 40 -8 143 15 229 50 75 30 88 31
64 5 -24 -27 -95 -60 -129 -60 -36 0 -25 -16 16 -22 47 -7 96 9 158 53 l54 38
24 -22 c53 -48 102 -119 102 -147 0 -22 -10 -36 -49 -64 -109 -78 -247 -126
-365 -126 l-61 -1 30 -16 c66 -36 287 -8 404 51 28 14 54 26 59 26 15 0 128
-249 171 -376 22 -65 48 -157 58 -204 20 -98 23 -274 5 -307 -15 -27 8 -20
-491 -149 -312 -80 -415 -104 -421 -94 -4 7 -13 45 -20 85 -12 73 -12 75 14
119 15 25 51 64 81 86 30 22 59 50 66 61 16 32 28 129 18 162 -7 25 -2 40 32
96 53 88 115 291 89 291 -20 0 -67 -73 -121 -186 -32 -67 -68 -131 -80 -143
-33 -30 -93 -28 -162 7 -64 33 -64 18 3 -41 30 -28 50 -37 78 -39 59 -2 85 2
109 18 30 19 33 18 22 -13 -4 -16 -11 -40 -14 -55 -4 -22 -143 -187 -164 -195
-3 -2 -19 51 -34 118 -16 66 -51 186 -77 265 l-49 145 35 21 34 20 -37 70
c-20 38 -67 105 -105 149 l-69 80 11 55 c11 50 14 55 33 49 12 -3 52 -11 90
-17 l67 -12 10 -40 c6 -23 24 -72 40 -111 22 -50 30 -86 30 -127 0 -31 5 -69
11 -85 10 -25 14 -15 33 102 24 139 54 240 86 293 25 40 108 82 164 82 38 0
39 0 21 20 -22 24 -81 26 -140 5 -22 -8 -41 -15 -42 -15 -1 0 -3 17 -5 38 -2
31 -8 39 -36 52 -28 13 -32 19 -28 42 8 40 -12 50 -61 28 l-41 -18 -6 30 c-18
90 -1 167 49 226 29 33 34 45 26 60 -8 15 -5 23 20 41 l30 22 35 -30 c19 -17
39 -31 44 -31 13 0 13 47 0 55 -22 13 -8 35 47 74 31 22 59 39 61 36 2 -2 -2
-20 -8 -41z m713 -40 c16 -59 17 -79 7 -139 -19 -114 -15 -110 -67 -73 -26 17
-79 63 -120 101 -68 64 -93 106 -93 155 0 24 37 11 110 -37 41 -27 77 -48 80
-46 4 2 15 29 25 60 11 30 24 54 30 52 5 -2 18 -35 28 -73z m-3492 -5 c13 -43
14 -40 -31 -69 -23 -15 7 -31 37 -19 26 9 33 -1 47 -68 6 -26 4 -32 -13 -38
-17 -5 -21 -15 -21 -46 0 -36 -2 -39 -27 -39 -16 0 -35 -4 -43 -10 -13 -8 -13
-10 0 -14 8 -3 24 -6 35 -8 14 -2 20 -11 20 -28 0 -21 -7 -27 -45 -37 -64 -16
-145 -16 -187 2 -40 17 -46 15 -38 -7 8 -20 49 -38 86 -38 23 0 32 -6 40 -27
5 -14 8 -32 5 -38 -6 -16 -137 -39 -178 -31 -39 8 -168 59 -168 66 0 3 38 18
85 34 64 20 94 36 122 64 52 53 83 128 92 222 10 94 24 120 83 148 67 33 85
29 99 -19z m3231 -114 c8 -16 18 -52 22 -80 4 -27 10 -65 13 -83 5 -31 4 -33
-18 -30 -22 3 -25 9 -31 68 -3 36 -13 97 -22 135 -9 39 -15 84 -15 100 0 24 3
20 18 -25 10 -30 25 -68 33 -85z m-2207 51 c66 -24 107 -53 127 -90 10 -18 5
-18 -108 -14 -76 4 -152 14 -211 29 l-92 23 15 28 c20 38 44 47 131 47 52 1
90 -6 138 -23z m852 -15 c28 -13 61 -33 73 -46 l22 -23 -66 -7 c-87 -10 -116
-3 -203 47 -51 29 -69 44 -61 50 24 17 179 2 235 -21z m-2626 -18 c1 -10 0
-33 -1 -50 -2 -43 16 -43 81 2 75 52 113 44 89 -19 -24 -64 -175 -193 -216
-184 -16 3 -66 108 -78 165 -7 29 -4 33 51 67 65 41 73 43 74 19z m469 -9 c28
-71 0 -145 -82 -218 -50 -46 -148 -104 -148 -89 1 5 9 33 20 63 11 30 19 76
20 103 0 42 5 53 43 94 66 72 130 93 147 47z m1782 1 c-4 -11 -6 -54 -4 -95 1
-44 -6 -123 -19 -192 -20 -112 -22 -118 -45 -118 -14 0 -41 -7 -60 -15 l-36
-15 -49 44 c-31 28 -65 48 -95 55 -35 9 -44 15 -40 27 3 9 6 27 6 40 0 21 4
23 24 18 21 -5 24 -1 35 40 6 25 11 74 11 110 0 54 -4 69 -25 94 l-25 30 165
-1 c160 -2 164 -3 157 -22z m163 -40 c44 -12 105 -26 135 -30 107 -15 177 -52
205 -111 28 -59 -12 -225 -75 -313 -24 -33 -92 -81 -114 -81 -2 0 7 28 21 62
50 123 64 271 31 332 -28 52 -108 84 -235 93 -69 5 -84 9 -88 24 -10 30 4 61
23 54 10 -4 53 -17 97 -30z m-2190 -65 c-6 -31 -24 -97 -40 -147 l-27 -91 -68
-26 c-90 -36 -138 -69 -180 -124 -49 -67 -115 -198 -139 -279 -61 -205 -35
-456 59 -581 29 -38 41 -65 46 -103 6 -47 5 -51 -12 -46 -10 4 -52 15 -91 26
-40 11 -77 22 -82 25 -5 3 -12 185 -16 403 -8 404 4 661 29 668 145 41 262 78
266 83 3 4 23 16 44 27 89 46 204 180 207 242 0 16 1 16 8 -2 4 -10 2 -44 -4
-75z m3359 14 c4 -9 5 -17 4 -18 -2 -1 -22 -16 -45 -34 -47 -36 -52 -35 -26 6
39 62 56 74 67 46z m-631 -19 c79 -18 112 -22 137 -15 32 9 32 9 16 -13 -47
-65 -69 -123 -68 -179 1 -53 18 -134 31 -150 4 -4 7 34 7 85 1 70 7 105 23
147 42 103 75 118 85 38 4 -29 9 -72 12 -95 l6 -41 39 13 c21 8 39 12 39 9 0
-2 -20 -45 -45 -95 -45 -89 -46 -90 -76 -84 -17 4 -71 4 -120 0 l-89 -7 0 -49
c0 -27 -2 -49 -5 -49 -2 0 -29 17 -59 39 -31 21 -70 44 -87 51 -25 11 -29 17
-24 34 35 107 44 159 44 269 1 94 4 117 15 117 8 0 61 -11 119 -25z m1240 -36
c-5 -4 -33 -21 -65 -38 l-56 -32 -11 51 c-18 82 -20 81 64 52 42 -14 72 -29
68 -33z m-2702 30 c24 -7 48 -16 54 -21 5 -5 -4 -59 -25 -142 l-34 -134 -27
14 c-39 20 -77 69 -85 109 -11 59 35 201 61 191 7 -2 33 -10 56 -17z m266 6
c149 -21 153 -23 153 -45 0 -10 -4 -21 -8 -24 -7 -4 -223 57 -274 77 -25 10
20 7 129 -8z m729 -40 c48 -20 74 -67 74 -136 0 -31 5 -80 10 -109 9 -46 8
-56 -7 -73 -33 -36 -95 -56 -215 -72 l-48 -6 0 30 c0 26 4 31 25 31 18 0 25 5
25 20 0 15 -7 20 -25 20 -21 0 -25 5 -25 30 0 19 -5 30 -14 30 -23 0 -28 16
-20 65 6 44 7 45 45 45 28 0 39 4 39 15 0 10 -10 15 -30 15 -36 0 -42 12 -32
60 10 47 42 63 110 55 30 -3 69 -12 88 -20z m-1381 -92 l-17 -45 32 -33 32
-33 -27 -50 c-15 -28 -39 -62 -54 -76 l-27 -26 -72 35 -72 34 0 86 0 86 40
-32 c22 -18 41 -30 43 -28 46 62 76 100 101 127 38 41 47 23 21 -45z m667 40
c80 -24 89 -29 84 -47 -3 -12 -6 -29 -6 -38 0 -15 -9 -18 -46 -18 -38 0 -45
-3 -42 -17 2 -12 15 -20 38 -23 25 -4 35 -10 34 -22 -3 -65 -3 -66 -38 -72
-32 -6 -36 -11 -56 -72 -22 -65 -23 -66 -54 -60 -53 10 -153 65 -172 93 -17
27 -17 28 10 78 54 96 139 225 149 225 5 0 50 -12 99 -27z m2405 -72 c-8 -51
-18 -96 -23 -101 -5 -5 -39 -16 -76 -26 l-66 -18 -61 53 -61 53 31 38 c27 34
34 37 56 29 54 -20 115 -4 183 50 14 11 26 18 28 17 1 -2 -4 -44 -11 -95z
m-466 30 c67 -67 68 -65 -50 -77 -113 -12 -170 17 -140 72 10 20 91 61 122 63
5 1 35 -26 68 -58z m659 9 c41 0 60 -4 60 -13 0 -14 -77 -297 -82 -302 -3 -3
-111 130 -130 160 -3 5 0 44 8 85 22 108 19 103 53 85 17 -8 56 -15 91 -15z
m-1032 -152 c19 -19 14 -81 -13 -142 -14 -31 -28 -74 -31 -96 -4 -22 -10 -40
-14 -40 -8 0 -20 75 -20 131 0 22 -4 39 -10 39 -5 0 5 27 23 60 33 61 44 69
65 48z m-3058 -34 c65 -25 89 -28 180 -28 58 0 125 6 148 13 40 11 48 10 90
-11 40 -19 52 -33 79 -88 29 -60 69 -203 91 -325 l8 -50 14 42 c12 38 11 54
-8 140 -33 146 -36 179 -22 213 7 16 14 30 15 30 2 0 42 -21 89 -46 51 -27 85
-51 83 -58 -3 -7 -15 -47 -27 -90 -12 -43 -31 -99 -42 -125 -11 -25 -33 -84
-50 -131 -39 -111 -61 -152 -105 -200 -51 -58 -78 -55 -143 17 -29 31 -62 76
-73 100 -23 47 -29 50 -46 29 -23 -27 64 -219 113 -252 15 -9 27 -29 31 -52
10 -54 31 -81 79 -102 l43 -18 6 -163 c4 -89 5 -164 3 -166 -2 -2 -195 44
-429 103 l-426 106 -20 87 c-40 174 -45 208 -44 301 0 79 20 214 39 269 3 10
13 6 39 -14 69 -52 120 -67 224 -67 53 0 128 7 166 15 123 28 127 34 14 29
-180 -8 -285 18 -439 107 -101 58 -100 54 -41 191 47 110 78 144 176 194 77
40 78 40 185 0z m1700 13 c19 -12 43 -37 53 -55 19 -33 19 -33 -3 -95 -13 -34
-38 -99 -57 -144 -29 -68 -38 -81 -49 -72 -19 15 -44 4 -44 -20 0 -30 -19 -35
-29 -9 -6 13 -13 44 -16 70 -5 40 -13 54 -50 86 l-44 38 40 72 c37 68 42 72
74 72 30 0 35 3 35 24 0 61 32 73 90 33z m-555 -21 l50 -13 3 -47 c3 -41 7
-50 35 -66 l32 -20 -75 0 c-90 0 -135 11 -175 44 l-30 25 50 45 c28 25 52 45
55 45 3 0 28 -6 55 -13z m2792 -48 c76 -97 90 -120 127 -205 l34 -80 -90 -37
c-50 -20 -92 -35 -93 -34 -1 2 -19 35 -39 75 -21 39 -53 90 -73 113 -19 22
-34 42 -32 44 2 1 19 13 37 25 17 12 32 28 32 34 0 6 -21 33 -46 58 l-47 48
39 6 c21 4 44 8 49 10 37 13 56 2 102 -57z m-1954 -29 c9 -72 18 -79 95 -79
l66 0 -71 -72 c-39 -40 -89 -106 -112 -145 -29 -50 -48 -73 -61 -73 -10 0 -24
-2 -32 -5 -10 -4 -13 11 -14 62 -1 79 -24 143 -51 143 -10 0 -33 -21 -52 -48
-18 -26 -30 -38 -26 -27 22 62 88 232 97 248 13 25 64 46 114 47 l41 0 6 -51z
m591 -63 c78 -69 181 -201 229 -293 32 -62 32 -62 14 -93 -18 -30 -18 -31 21
-138 21 -59 44 -127 50 -152 56 -220 95 -391 95 -420 1 -19 -10 -57 -23 -85
l-25 -50 -170 -41 c-93 -23 -282 -65 -420 -93 -331 -69 -459 -99 -481 -116
-18 -13 -18 -16 -2 -79 24 -92 78 -216 96 -223 8 -4 64 1 125 11 60 10 110 16
112 14 6 -7 47 -319 42 -324 -2 -3 -137 -8 -299 -11 l-295 -6 -6 39 c-4 21 -7
105 -7 185 0 144 1 149 38 260 52 153 136 355 175 421 45 75 64 82 234 82
l143 1 -83 28 c-45 15 -89 30 -97 33 -9 4 72 36 190 75 211 70 221 80 50 55
-52 -8 -96 -13 -98 -12 -7 8 22 159 45 229 l25 78 57 -7 c180 -24 273 2 383
107 l73 69 -100 -48 -100 -47 -140 0 c-152 1 -238 19 -414 86 l-80 30 53 82
c29 45 83 132 120 194 37 62 71 115 75 118 5 2 20 -4 34 -15 50 -40 81 -28
168 61 91 93 81 94 193 -5z m-1619 -30 c52 -35 102 -39 255 -18 126 18 139 18
189 3 l55 -16 30 -85 31 -85 -1 -227 c-1 -126 0 -228 2 -228 19 0 58 146 55
208 -2 48 -4 47 67 28 69 -19 102 -41 102 -69 0 -38 -47 -199 -79 -270 -57
-126 -165 -204 -246 -177 -56 19 -115 95 -180 234 -32 69 -60 124 -62 122 -8
-7 60 -204 97 -282 68 -141 137 -181 230 -134 l40 20 58 -42 c100 -74 152
-128 152 -158 0 -35 -24 -102 -103 -290 -36 -85 -75 -184 -87 -220 -26 -77
-50 -207 -50 -271 0 -26 -3 -61 -7 -79 l-6 -33 -80 6 c-44 4 -81 8 -82 9 -6 6
56 347 71 390 12 36 27 56 62 82 80 59 107 94 103 132 -2 19 -63 39 -343 113
-235 62 -626 176 -635 185 -7 6 27 307 48 424 33 195 96 400 180 590 24 55 88
162 96 162 1 0 18 -11 38 -24z m855 -145 c16 -31 12 -96 -11 -163 -30 -88 -37
-95 -101 -88 l-53 5 -3 83 c-2 45 0 82 4 82 4 0 18 -9 30 -21 l22 -20 43 70
c24 39 47 71 51 71 4 0 12 -9 18 -19z m-2182 -111 c-25 -66 -51 -206 -57 -310
l-7 -115 -19 80 c-30 123 -27 249 9 353 l28 84 28 -34 c23 -27 26 -37 18 -58z
m4512 36 c0 -49 -20 -75 -94 -125 l-74 -50 -16 46 c-9 25 -15 47 -13 48 10 9
184 104 190 105 4 0 7 -11 7 -24z m-2540 -117 c0 -37 -4 -49 -15 -49 -12 0
-15 13 -15 61 0 54 2 60 15 49 10 -8 15 -30 15 -61z m246 -28 l-38 -39 53 -31
c30 -16 59 -34 66 -38 10 -6 9 -21 -2 -68 -8 -33 -15 -105 -15 -160 0 -83 5
-114 28 -182 l28 -82 -29 -12 c-40 -17 -87 -57 -87 -75 0 -8 -4 -14 -9 -14
-23 0 -155 61 -188 87 -20 15 -40 31 -45 34 -4 3 23 52 61 110 93 139 124 230
120 349 -3 85 3 111 37 144 8 9 25 16 37 16 19 0 17 -4 -17 -39z m247 -175
c48 -18 89 -35 92 -38 3 -2 -5 -38 -16 -79 -13 -47 -21 -108 -22 -165 l-2 -92
-45 -10 c-25 -6 -53 -14 -62 -17 -22 -9 -33 13 -53 110 -14 68 -15 95 -5 185
10 94 18 140 23 140 1 0 41 -15 90 -34z m-1523 -108 c0 -39 -14 -88 -25 -88
-18 0 -65 39 -65 54 0 7 17 20 38 29 47 19 52 20 52 5z m-1218 -254 c183 -38
600 -146 793 -204 94 -29 251 -77 350 -107 99 -30 356 -97 570 -149 215 -52
399 -98 409 -102 17 -7 15 -11 -18 -31 -46 -29 -33 -31 -418 64 -307 75 -609
159 -774 214 -128 42 -341 98 -694 181 -168 39 -324 76 -347 82 -37 9 -43 14
-43 38 0 49 5 49 172 14z m4851 -81 c3 -16 2 -31 -1 -34 -9 -9 -212 -74 -287
-93 -115 -29 -612 -135 -920 -196 -170 -34 -467 -97 -659 -141 -193 -43 -353
-79 -358 -79 -4 0 -8 10 -8 23 0 22 13 26 293 91 160 38 507 122 771 187 263
66 578 142 700 169 121 28 262 61 311 74 125 34 151 33 158 -1z m-4773 -94
c79 -16 146 -32 149 -34 5 -6 -19 -108 -30 -126 -6 -10 -33 -7 -131 16 -68 16
-128 33 -134 39 -10 9 -44 119 -44 139 0 4 10 5 23 2 12 -3 87 -19 167 -36z
m4736 -72 c-7 -29 -23 -67 -35 -83 -21 -29 -30 -32 -129 -47 -59 -9 -110 -13
-113 -9 -10 11 -31 104 -25 110 7 7 276 80 298 81 15 1 15 -4 4 -52z m-4480
15 c7 -5 -34 -161 -121 -462 -119 -408 -134 -455 -154 -458 -14 -2 -21 2 -21
12 0 14 231 865 245 904 5 13 34 16 51 4z m354 -84 c107 -28 197 -53 199 -54
2 -2 -3 -27 -11 -56 -11 -39 -20 -53 -33 -51 -20 1 -438 104 -444 109 -9 8 63
104 77 104 9 0 104 -23 212 -52z m3799 -50 c23 -155 70 -393 110 -563 23 -93
43 -180 46 -192 4 -18 1 -23 -13 -23 -16 0 -28 34 -80 218 -34 119 -82 303
-107 407 -25 105 -48 196 -50 202 -4 11 37 29 71 32 6 1 16 -36 23 -81z m-203
-30 c26 -28 44 -53 39 -55 -24 -7 -511 -103 -526 -103 -13 0 -21 14 -30 55 -7
30 -10 57 -8 59 2 2 69 16 149 30 80 14 179 34 220 45 41 10 82 19 91 20 9 1
38 -22 65 -51z m-3277 -4 c2 -2 -47 -173 -110 -379 l-114 -375 -33 0 c-23 0
-32 4 -30 14 2 7 53 181 113 385 l110 371 30 -6 c17 -3 32 -8 34 -10z m-836
-31 c-2 -17 -8 -44 -14 -60 l-12 -28 -8 40 c-14 72 -12 87 14 83 18 -2 22 -9
20 -35z m303 -23 c54 -11 102 -24 106 -28 15 -16 67 -130 82 -184 9 -31 19
-97 22 -146 6 -74 4 -90 -8 -95 -9 -3 -72 -15 -142 -27 -130 -22 -237 -23
-243 -3 -7 20 62 62 133 80 38 10 70 18 71 18 2 1 -26 89 -62 195 -63 189 -69
210 -61 210 2 0 48 -9 102 -20z m961 -47 c250 -64 233 -52 198 -137 -13 -30
-20 -37 -36 -33 -11 3 -130 32 -265 63 -150 36 -244 63 -244 70 0 17 89 94
108 94 8 0 115 -26 239 -57z m2341 -291 c40 -185 72 -341 72 -345 0 -5 -10 -7
-22 -5 -19 3 -27 26 -78 228 -31 124 -71 275 -88 337 -32 118 -31 121 18 122
25 1 26 -2 98 -337z m-3031 281 c43 -9 82 -20 87 -24 11 -9 -63 -271 -75 -264
-4 3 -11 20 -14 38 -4 17 -27 83 -51 145 -24 63 -44 116 -44 118 0 7 16 5 97
-13z m2793 -44 c23 -33 40 -62 38 -64 -4 -4 -514 -95 -534 -95 -9 0 -38 101
-31 106 4 2 463 112 473 113 6 1 30 -26 54 -60z m743 -32 c-128 -133 -199
-291 -221 -489 l-7 -63 -72 -3 c-61 -2 -72 0 -77 15 -12 40 -106 486 -103 490
5 4 497 110 521 112 14 1 3 -16 -41 -62z m97 5 c15 -53 110 -520 110 -543 0
-18 -9 -19 -155 -19 l-156 0 7 68 c11 127 35 255 60 331 28 85 100 215 114
206 5 -3 14 -22 20 -43z m-4005 -99 c13 -59 21 -111 17 -114 -8 -7 -95 -29
-99 -25 -2 1 9 60 24 129 14 70 28 125 31 123 2 -3 14 -53 27 -113z m1385 88
c-1 -3 -47 -130 -103 -281 l-102 -275 -32 -3 -31 -3 104 268 c133 343 119 312
143 306 12 -3 21 -8 21 -12z m-617 -22 c39 -10 39 -10 32 -52 -9 -55 -29 -113
-72 -215 -20 -45 -34 -84 -32 -86 2 -2 92 -22 199 -45 107 -23 196 -43 197
-45 2 -2 -5 -24 -14 -49 l-17 -47 -258 0 c-142 0 -258 3 -258 6 0 10 142 528
147 537 6 10 31 9 76 -4z m857 -39 c0 -3 -20 -25 -44 -49 l-43 -43 -42 13
c-22 7 -41 15 -41 18 0 3 18 24 41 47 40 40 41 41 85 31 24 -6 44 -13 44 -17z
m960 28 c0 -2 27 -120 59 -263 l58 -260 -30 -3 c-16 -2 -31 -1 -34 2 -3 3 -32
118 -64 257 -63 266 -63 268 -11 269 12 0 22 -1 22 -2z m-1572 -47 c88 -21
166 -42 172 -46 18 -11 4 -92 -32 -191 -17 -47 -37 -88 -44 -91 -16 -6 -294
24 -302 32 -8 8 30 335 38 335 5 0 80 -18 168 -39z m1386 -37 c21 -25 36 -47
35 -48 -5 -4 -143 -26 -161 -26 -9 0 -12 14 -10 50 4 52 2 51 92 69 3 1 23
-20 44 -45z m661 -27 c-22 -18 -92 -80 -156 -138 -116 -107 -166 -146 -174
-137 -8 8 -54 222 -49 227 4 4 381 77 409 80 6 0 -8 -14 -30 -32z m179 6 c17
-54 62 -400 54 -408 -6 -6 -528 -18 -528 -13 0 3 16 23 36 44 20 22 63 78 95
127 95 140 177 211 288 252 48 18 49 18 55 -2z m-1758 -58 c43 -13 51 -13 72
1 l23 15 -6 -48 c-13 -100 -27 -151 -43 -166 -14 -11 -172 -34 -172 -24 0 1
14 53 30 116 17 62 30 115 30 117 0 7 16 4 66 -11z m-1156 -190 c0 -25 -7 -72
-17 -105 l-16 -60 -224 0 c-209 0 -224 1 -219 18 3 9 8 31 11 47 14 64 12 62
88 69 69 6 269 45 332 65 17 5 33 10 38 10 4 1 7 -19 7 -44z m1170 -149 l65
-21 -114 -3 c-62 -1 -116 -1 -118 1 -2 3 -1 17 3 31 6 26 9 27 53 20 25 -4 75
-16 111 -28z m2818 -72 c24 -17 31 -71 10 -92 -8 -8 -130 -10 -482 -5 -259 3
-840 0 -1291 -6 -627 -9 -975 -10 -1480 -1 -363 7 -839 15 -1057 18 -283 5
-400 10 -409 19 -7 7 -9 22 -5 37 l6 26 1843 1 c1013 1 1991 5 2172 8 611 13
668 13 693 -5z"/>
<path d="M4894 7409 c-8 -10 -7 -49 4 -138 l15 -123 36 6 c20 3 46 6 59 6 13
0 22 6 22 16 0 12 -9 15 -37 12 l-36 -3 -23 108 c-29 135 -27 132 -40 116z"/>
<path d="M4977 7351 c-25 -5 -27 -8 -14 -25 11 -15 21 -17 51 -12 28 5 36 11
32 22 -3 9 -6 18 -6 20 0 5 -28 3 -63 -5z"/>
<path d="M4813 7323 c-36 -5 -41 -14 -18 -33 20 -17 77 -3 73 18 -4 18 -11 20
-55 15z"/>
<path d="M4975 7113 c-81 -9 -94 -14 -88 -28 4 -11 22 -15 67 -15 64 0 105 17
92 38 -7 12 -13 12 -71 5z"/>
<path d="M3548 6147 c-48 -16 -54 -23 -30 -36 25 -13 97 9 97 30 0 18 -21 20
-67 6z"/>
<path d="M3362 6103 c2 -14 14 -19 51 -21 53 -4 55 -7 59 -107 3 -58 4 -60 32
-63 21 -3 26 0 20 9 -4 7 -15 54 -23 103 l-16 91 -63 3 c-57 3 -63 1 -60 -15z"/>
<path d="M3575 5879 c-16 -5 -59 -7 -95 -4 l-65 6 23 -20 c47 -41 126 -36 168
10 19 21 14 22 -31 8z"/>
<path d="M2997 6194 c-21 -14 -35 -29 -32 -34 10 -16 58 -11 85 9 20 16 22 21
11 35 -17 20 -18 20 -64 -10z"/>
<path d="M6232 6118 c3 -7 19 -14 37 -16 31 -3 33 -5 27 -34 -3 -17 -6 -47 -6
-68 0 -28 -5 -39 -22 -48 -23 -11 -23 -11 4 -11 14 -1 33 -4 42 -7 14 -5 16 7
16 95 l0 101 -51 0 c-36 0 -49 -4 -47 -12z"/>
<path d="M6360 6111 c0 -15 69 -19 74 -4 4 9 -6 13 -34 13 -22 0 -40 -4 -40
-9z"/>
<path d="M6220 5884 c0 -5 7 -17 14 -26 20 -27 127 -25 144 2 12 19 10 20 -50
20 -35 0 -73 3 -85 6 -13 4 -23 2 -23 -2z"/>
<path d="M4515 5655 c-132 -95 -241 -177 -242 -182 -4 -12 458 -298 482 -298
27 0 528 286 518 296 -26 25 -498 359 -507 358 -6 -1 -119 -79 -251 -174z
m465 -24 c111 -85 197 -157 193 -161 -4 -4 -100 -66 -212 -138 l-203 -131
-132 101 c-72 55 -159 121 -193 147 -34 25 -61 49 -60 53 4 14 382 288 394
286 7 -2 103 -72 213 -157z"/>
<path d="M6766 5964 c-50 -34 -36 -54 24 -34 41 14 44 17 34 44 -8 20 -11 20
-58 -10z"/>
<path d="M6656 5931 c-4 -5 -4 -15 -1 -23 3 -8 -7 -21 -26 -32 -26 -15 -29
-20 -16 -27 9 -6 26 -5 41 3 15 6 28 9 29 7 2 -2 19 -26 37 -54 18 -27 34 -52
36 -53 1 -2 16 4 33 14 24 14 28 21 20 36 -7 13 -17 17 -29 13 -14 -5 -29 9
-65 60 -50 69 -51 70 -59 56z"/>
<path d="M6792 5720 c-32 -20 -35 -40 -6 -40 22 0 64 30 64 46 0 19 -19 17
-58 -6z"/>
<path d="M8430 8283 c0 -5 7 -17 15 -27 37 -49 25 -64 -160 -219 -153 -128
-180 -147 -211 -147 -19 0 -45 7 -58 16 -49 31 -34 -6 36 -90 47 -57 75 -83
81 -77 7 7 6 15 -2 25 -17 21 -18 81 -1 101 35 42 310 265 310 250 0 -8 -29
-146 -66 -307 -60 -270 -67 -318 -47 -318 4 0 97 74 206 165 180 151 201 165
236 165 23 0 44 -6 51 -15 8 -10 17 -12 23 -6 9 9 -109 161 -125 161 -12 0
-19 -18 -8 -25 21 -13 11 -74 -17 -103 -37 -39 -283 -245 -287 -241 -2 2 25
130 60 284 35 154 63 288 63 299 1 10 -17 40 -40 67 -37 45 -59 60 -59 42z"/>
<path d="M1115 7780 c-7 -12 -4 -18 169 -285 149 -232 160 -253 146 -291 -23
-60 9 -39 67 43 62 87 74 127 24 79 -37 -35 -63 -33 -101 10 -60 69 -60 70 15
175 37 52 70 96 72 98 8 10 155 -32 160 -46 3 -8 0 -26 -8 -41 -7 -15 -15 -30
-17 -34 -2 -5 2 -8 10 -8 18 1 150 188 137 196 -6 3 -22 -4 -35 -17 l-25 -24
-292 74 c-161 41 -297 76 -304 78 -6 2 -14 -1 -18 -7z m228 -123 c71 -18 129
-35 130 -39 2 -8 -116 -178 -123 -178 -3 1 -31 42 -62 93 -32 51 -67 107 -79
125 -26 40 -28 40 134 -1z"/>
<path d="M8838 7626 c-54 -28 -96 -55 -94 -61 2 -5 10 -8 17 -7 8 2 40 10 71
18 68 18 122 7 157 -30 45 -48 34 -59 -204 -203 -121 -73 -225 -133 -232 -133
-7 0 -23 16 -35 35 -23 35 -38 44 -38 24 0 -22 135 -236 147 -232 8 3 6 14 -8
36 -10 18 -19 39 -19 49 0 11 76 62 224 152 123 75 228 136 233 136 17 0 43
-35 49 -67 9 -47 -12 -97 -62 -145 -38 -37 -56 -68 -39 -68 5 0 160 105 178
120 7 6 -219 398 -242 421 -3 3 -50 -17 -103 -45z"/>
<path d="M1220 7236 c0 -7 11 -21 25 -30 14 -9 39 -35 55 -58 43 -58 41 -116
-5 -208 -19 -37 -39 -71 -45 -75 -5 -3 -116 48 -245 115 -252 130 -251 130
-220 190 24 46 -1 44 -28 -2 -56 -97 -107 -208 -95 -208 7 1 22 15 33 32 11
17 25 33 30 35 16 4 457 -230 469 -249 7 -12 6 -26 -7 -52 -12 -26 -13 -36 -4
-36 11 0 243 437 236 444 -8 8 -190 116 -194 116 -3 0 -5 -6 -5 -14z"/>
<path d="M9199 7114 c-10 -12 -10 -22 -2 -45 10 -24 9 -31 -3 -36 -15 -5 -73
0 -114 12 -24 6 -24 6 -5 -9 73 -60 205 -28 205 49 0 42 -54 62 -81 29z"/>
<path d="M8770 6755 c0 -6 72 -199 76 -204 1 -1 7 0 13 3 6 4 6 16 -1 36 -8
24 -7 36 6 55 15 23 23 25 85 25 l69 0 42 -114 43 -115 -54 -50 c-30 -28 -62
-50 -72 -51 -10 0 -26 13 -35 30 -9 16 -22 30 -29 30 -8 0 -4 -22 14 -67 14
-38 32 -87 40 -110 18 -52 41 -58 35 -10 -4 32 5 41 227 241 127 115 231 214
231 221 0 9 -79 14 -311 21 l-311 9 -23 28 c-21 24 -45 36 -45 22z m570 -93
c0 -7 -74 -77 -196 -184 -21 -19 -21 -19 -58 78 -20 53 -36 100 -36 105 0 5
65 9 145 9 80 0 145 -4 145 -8z"/>
<path d="M668 6716 c-137 -37 -227 -180 -198 -312 33 -145 170 -245 338 -246
62 0 83 5 137 31 99 49 145 124 145 233 -1 142 -96 252 -254 294 -62 17 -106
17 -168 0z m142 -93 c110 -31 204 -94 236 -156 33 -62 13 -152 -42 -196 -60
-47 -138 -50 -264 -9 -186 60 -273 153 -240 261 34 114 141 149 310 100z"/>
<path d="M9577 6254 c-3 -4 -4 -18 -1 -33 10 -55 -14 -67 -225 -111 -257 -53
-266 -54 -308 -5 -18 21 -36 36 -39 32 -10 -9 39 -228 51 -224 5 2 11 14 13
28 6 52 12 65 39 80 29 17 390 95 399 86 3 -2 -88 -110 -201 -240 -147 -169
-203 -240 -199 -252 5 -11 14 -15 28 -11 11 3 122 26 246 52 250 52 284 52
308 2 13 -29 32 -38 32 -15 -1 24 -38 188 -44 194 -3 3 -8 -3 -11 -13 -14 -46
-33 -70 -65 -86 -38 -17 -370 -89 -370 -79 0 3 57 71 126 151 69 80 157 182
196 228 l70 82 -12 65 c-12 63 -21 81 -33 69z"/>
<path d="M337 6011 c-10 -55 -17 -107 -17 -116 0 -25 16 -17 31 17 23 53 47
56 243 24 117 -19 187 -35 212 -50 53 -29 76 -76 71 -146 -5 -80 -30 -125 -84
-151 l-46 -22 -201 32 c-111 18 -209 35 -219 38 -16 4 -18 13 -15 54 2 34 -1
49 -9 49 -7 0 -13 -3 -13 -7 0 -5 -9 -60 -20 -123 -23 -132 -23 -140 -10 -140
5 0 12 16 16 35 3 19 13 39 21 43 8 5 103 -6 222 -26 135 -23 221 -32 244 -28
75 14 127 84 147 198 18 104 -16 191 -92 230 -20 11 -115 32 -215 49 -98 17
-188 37 -200 45 -22 14 -25 22 -27 68 -1 11 -6 21 -12 23 -7 2 -17 -36 -27
-96z"/>
<path d="M9720 5453 c0 -10 -9 -32 -19 -49 l-19 -31 -227 -7 c-252 -8 -266 -5
-288 55 -6 16 -18 29 -26 29 -11 0 -13 -13 -8 -67 4 -38 7 -89 7 -115 0 -38 3
-46 15 -42 8 4 15 17 15 31 0 34 42 73 82 74 18 1 111 4 206 8 94 3 172 3 172
0 0 -4 -108 -95 -240 -203 -132 -108 -240 -204 -240 -213 0 -14 25 -15 258 -9
282 8 301 6 323 -45 6 -16 16 -29 21 -29 12 0 6 193 -7 196 -5 2 -17 -11 -25
-29 -8 -17 -26 -37 -39 -43 -23 -12 -387 -31 -397 -22 -2 3 99 90 226 194
l230 189 0 73 c0 41 -4 72 -10 72 -5 0 -10 -8 -10 -17z"/>
<path d="M640 5283 c0 -6 21 -16 47 -23 69 -20 129 -81 138 -142 16 -109 -32
-182 -140 -213 -81 -24 -261 -17 -325 12 -68 31 -102 72 -108 131 -8 90 38
149 148 189 80 30 76 43 -13 43 -87 0 -167 -10 -167 -20 0 -4 14 -13 30 -20
17 -7 30 -14 30 -17 0 -2 -12 -25 -27 -51 -36 -61 -39 -155 -6 -218 84 -160
340 -214 494 -106 77 54 114 125 114 217 0 88 -33 151 -100 190 -47 28 -115
44 -115 28z"/>
<path d="M9141 4712 c-14 -109 -14 -132 -1 -132 6 0 10 8 10 19 0 21 36 71 52
71 6 0 37 -12 69 -26 45 -21 59 -32 59 -48 -1 -30 -28 -227 -32 -230 -8 -6
-130 -36 -147 -36 -21 0 -33 33 -24 68 4 15 1 22 -9 22 -10 0 -18 -30 -29
-120 -11 -96 -12 -120 -2 -120 7 0 13 6 13 13 0 39 28 50 326 127 196 50 299
81 299 89 0 7 -117 78 -260 157 -142 79 -264 152 -270 161 -5 10 -12 29 -15
42 -11 54 -27 30 -39 -57z m323 -173 c50 -29 106 -61 125 -72 l34 -21 -144
-37 c-79 -21 -145 -36 -147 -34 -3 3 18 183 23 203 6 18 9 17 109 -39z"/>
<path d="M646 4650 c-70 -21 -107 -91 -121 -230 -11 -106 -22 -139 -58 -160
-42 -26 -82 -25 -119 1 -103 73 -61 230 79 297 36 17 43 32 16 32 -32 -1 -193
-27 -199 -32 -5 -6 6 -18 38 -41 16 -11 16 -15 -2 -69 -45 -130 30 -248 157
-248 117 0 153 46 178 224 16 115 34 158 72 175 114 52 218 -95 158 -222 -21
-44 -84 -104 -131 -123 -35 -15 -46 -34 -19 -34 17 0 160 19 193 26 31 6 28
26 -9 48 -22 13 -28 23 -23 34 22 54 33 90 34 115 2 143 -118 244 -244 207z"/>
<path d="M691 3778 c-27 -40 -68 -95 -90 -123 -23 -27 -41 -53 -41 -56 0 -3
24 -11 53 -18 28 -8 95 -29 147 -49 l94 -35 18 24 c9 13 51 71 93 127 42 57
75 105 73 107 -2 1 -30 10 -63 19 -33 10 -95 30 -138 47 -43 16 -83 29 -88 29
-4 0 -31 -33 -58 -72z"/>
<path d="M9227 3844 c-3 -4 -69 -28 -146 -53 l-140 -47 40 -49 c22 -28 63 -84
91 -125 28 -41 52 -76 53 -78 2 -2 38 10 81 27 44 16 112 39 151 51 l73 21
-63 82 c-34 45 -76 103 -92 129 -30 48 -36 53 -48 42z"/>
<path d="M8707 3155 c-31 -63 -57 -120 -57 -125 0 -21 19 -9 39 25 13 22 28
35 41 35 29 0 460 -218 467 -236 3 -9 -1 -31 -10 -50 -12 -24 -13 -35 -5 -40
7 -4 14 -2 16 5 2 7 28 62 58 122 30 61 51 115 48 121 -4 6 -15 -5 -26 -26
-10 -20 -25 -39 -32 -42 -17 -7 -475 222 -482 240 -3 8 2 28 10 45 19 36 20
41 3 41 -7 0 -38 -52 -70 -115z"/>
<path d="M1062 3118 c-188 -28 -325 -209 -278 -370 40 -137 153 -204 285 -168
59 16 39 31 -24 18 -71 -14 -130 3 -175 51 -64 67 -73 145 -25 222 58 90 244
189 358 189 80 0 157 -74 157 -151 0 -45 -40 -127 -79 -163 -27 -26 -41 -56
-26 -56 16 0 204 123 200 131 -4 5 -21 9 -38 9 l-32 0 0 64 c-1 53 -6 72 -31
112 -55 90 -162 131 -292 112z"/>
<path d="M8577 2900 c-31 -49 -57 -93 -57 -99 0 -16 17 -13 23 3 3 8 17 22 31
32 24 15 28 15 51 0 26 -17 278 -346 271 -353 -9 -9 -468 92 -473 103 -2 7 3
29 13 49 9 19 14 39 10 42 -8 8 -1 16 -79 -101 -64 -96 -79 -140 -33 -97 12
12 35 21 52 21 16 0 156 -25 312 -56 187 -38 286 -54 293 -47 6 6 -51 90 -168
249 -171 229 -178 240 -179 286 0 26 -2 50 -5 52 -2 3 -30 -35 -62 -84z"/>
<path d="M1367 2585 c-146 -56 -237 -178 -237 -317 0 -104 48 -180 143 -228
115 -57 247 -34 353 62 97 90 133 198 101 309 -19 65 -73 131 -131 161 -52 27
-174 34 -229 13z m277 -83 c88 -83 68 -195 -55 -305 -166 -148 -320 -171 -396
-57 -28 40 -31 116 -7 166 21 43 135 150 206 192 96 57 194 58 252 4z"/>
<path d="M8097 2243 c-86 -97 -153 -181 -151 -185 3 -5 19 3 36 17 17 14 35
24 40 23 21 -7 387 -334 393 -351 5 -12 -1 -27 -16 -43 -15 -16 -19 -28 -13
-34 10 -10 329 343 329 364 0 17 -152 158 -159 148 -3 -5 3 -20 13 -33 60 -78
69 -162 22 -225 -50 -68 -101 -115 -116 -106 -8 4 -55 43 -104 86 -100 87
-103 97 -38 136 41 26 71 25 114 -1 54 -33 53 -11 -2 38 -99 90 -156 136 -161
130 -4 -3 3 -21 15 -40 28 -46 27 -89 -5 -126 -14 -17 -30 -31 -35 -31 -16 0
-179 151 -179 166 0 9 31 46 68 85 63 64 71 69 111 69 23 0 65 -10 92 -21 27
-12 52 -19 56 -15 3 3 4 7 2 9 -106 84 -149 117 -152 117 -2 0 -74 -80 -160
-177z"/>
<path d="M1877 2214 c-3 -3 8 -24 25 -45 l31 -39 -24 -28 c-85 -97 -346 -352
-360 -352 -10 0 -31 11 -47 25 -17 14 -33 22 -36 17 -8 -14 190 -206 204 -197
8 5 2 17 -20 40 -18 18 -31 38 -29 43 2 5 44 51 92 102 l88 93 35 -34 c19 -18
39 -50 45 -70 13 -42 3 -66 -67 -165 -44 -62 -53 -98 -34 -135 15 -27 67 -51
93 -43 36 10 88 45 82 54 -3 5 -21 0 -40 -12 -74 -43 -84 0 -25 107 43 78 51
130 25 175 -23 40 -18 40 42 4 66 -39 112 -44 160 -14 18 10 39 33 48 49 19
38 19 104 1 139 -19 36 -280 295 -289 286z m190 -209 c46 -47 53 -60 53 -94 0
-31 -7 -49 -31 -76 -71 -80 -126 -79 -220 5 l-54 49 85 85 c46 47 91 86 99 86
8 0 39 -25 68 -55z"/>
<path d="M7820 1957 c-19 -17 -64 -58 -100 -89 -45 -40 -61 -61 -54 -68 7 -7
17 -3 34 15 13 14 31 25 40 25 9 0 43 -28 76 -62 83 -88 277 -307 287 -323 5
-9 -4 -27 -23 -49 -17 -19 -27 -37 -22 -40 11 -7 213 174 206 185 -3 5 -20 -2
-38 -16 -18 -14 -39 -25 -48 -25 -16 0 -351 371 -356 395 -2 9 10 28 27 44 17
16 27 31 24 35 -10 10 -16 7 -53 -27z"/>
<path d="M2332 1666 c-62 -20 -115 -60 -160 -120 -157 -206 -59 -469 179 -477
94 -4 167 29 238 106 146 158 120 388 -54 477 -50 26 -146 33 -203 14z m227
-55 c77 -55 87 -154 27 -268 -46 -86 -134 -186 -190 -215 -113 -58 -247 20
-246 143 1 105 156 325 251 357 50 16 121 9 158 -17z"/>
<path d="M7300 1545 c-58 -41 -106 -79 -108 -85 -6 -17 18 -11 45 10 14 11 31
20 38 20 13 0 305 -403 312 -431 3 -10 -9 -29 -28 -47 -18 -17 -30 -34 -27
-38 7 -6 360 237 400 275 16 15 14 21 -39 106 -65 105 -61 100 -70 92 -3 -4 1
-30 10 -58 24 -72 22 -129 -6 -170 -26 -39 -141 -121 -160 -113 -6 3 -57 69
-112 146 -153 217 -195 280 -195 293 0 7 15 23 34 36 30 20 39 40 18 39 -4 0
-54 -34 -112 -75z"/>
<path d="M6920 1321 c-8 -4 -63 -34 -123 -65 -59 -32 -105 -61 -102 -66 3 -5
21 -2 39 7 19 9 41 13 49 10 16 -6 247 -445 247 -470 0 -8 -16 -25 -35 -37
-19 -12 -33 -26 -29 -31 5 -8 155 67 386 191 l67 36 -45 99 c-25 55 -47 102
-50 104 -12 13 -14 -14 -4 -68 12 -69 3 -122 -29 -163 -26 -32 -135 -90 -163
-86 -18 2 -46 48 -140 228 -65 124 -118 232 -118 240 0 9 16 24 35 34 19 11
35 25 35 33 0 15 0 15 -20 4z"/>
<path d="M3090 1276 c0 -7 16 -20 35 -29 19 -9 35 -24 35 -32 0 -21 -188 -467
-204 -483 -11 -11 -20 -11 -51 2 -45 19 -45 19 -45 4 0 -7 69 -42 153 -77 124
-53 164 -66 220 -69 88 -6 142 15 197 74 88 96 127 231 96 337 -30 105 -73
136 -338 246 -65 26 -98 36 -98 27z m309 -153 c82 -63 81 -185 -4 -353 -58
-114 -122 -159 -208 -146 -54 8 -147 51 -147 68 0 22 199 481 211 489 16 10
104 -25 148 -58z"/>
<path d="M6366 1053 c-3 -26 -8 -145 -11 -263 -7 -283 -11 -307 -45 -342 -16
-15 -24 -30 -19 -34 5 -3 52 10 104 28 101 35 126 59 52 51 -56 -7 -68 8 -74
91 l-6 64 54 19 c30 11 84 31 120 43 l66 24 39 -43 c21 -24 46 -54 54 -68 14
-23 13 -26 -9 -44 -13 -10 -29 -19 -37 -19 -8 0 -14 -4 -14 -10 0 -5 6 -10 14
-10 24 0 216 72 216 81 0 4 -17 9 -37 11 -36 3 -50 17 -239 233 -111 126 -206
231 -212 233 -5 1 -13 -19 -16 -45z m133 -193 l90 -105 -102 -37 c-56 -21
-103 -38 -104 -38 -2 0 -3 44 -3 98 0 115 10 206 21 195 4 -4 48 -55 98 -113z"/>
<path d="M3715 1020 c-4 -6 7 -13 24 -16 57 -12 57 -17 1 -236 -28 -112 -58
-227 -67 -256 l-15 -54 -44 4 c-28 2 -44 -1 -44 -8 0 -9 423 -125 469 -128 13
-1 70 157 71 197 0 27 -16 20 -31 -14 -43 -106 -126 -139 -258 -104 -85 22
-85 22 -49 163 33 131 34 132 94 110 40 -14 64 -54 64 -106 0 -23 4 -43 8 -46
11 -6 77 263 67 272 -4 4 -9 3 -11 -3 -13 -35 -48 -77 -71 -86 -27 -10 -99 -4
-107 9 -6 10 52 224 63 235 12 12 106 -6 168 -33 52 -23 74 -63 76 -141 3 -90
22 -73 42 37 9 52 15 97 14 98 -5 4 -443 116 -452 116 -3 0 -9 -5 -12 -10z"/>
<path d="M5645 895 c-71 -13 -131 -24 -132 -24 -2 -1 -3 -6 -3 -12 0 -7 13 -8
38 -4 28 4 42 2 51 -9 7 -8 31 -128 53 -267 38 -241 39 -253 22 -266 -10 -7
-30 -13 -46 -13 -19 0 -28 -5 -28 -16 0 -12 6 -15 23 -11 12 3 73 14 135 23
70 11 112 22 112 30 0 8 -14 10 -44 7 -24 -3 -46 -1 -50 5 -6 10 -86 490 -86
518 0 8 18 19 45 26 25 7 45 18 45 25 0 7 -1 13 -2 12 -2 -1 -61 -12 -133 -24z"/>
<path d="M4485 866 c-92 -29 -160 -88 -197 -173 -25 -57 -34 -166 -18 -231 26
-111 123 -201 225 -210 78 -6 117 4 161 42 l39 34 10 -51 c17 -86 31 -68 44
57 6 63 14 122 17 131 4 9 19 15 40 15 46 0 43 16 -3 23 -97 15 -213 19 -213
8 0 -6 15 -11 34 -11 63 0 75 -37 45 -136 -24 -79 -114 -114 -205 -79 -89 34
-125 136 -104 298 20 149 50 211 123 248 110 57 220 -16 257 -168 6 -24 14
-43 19 -43 5 0 11 24 15 53 9 78 7 187 -3 187 -5 0 -19 -13 -31 -30 l-21 -30
-35 26 c-66 51 -127 63 -199 40z"/>
<path d="M5065 843 c-55 -2 -110 -5 -122 -8 -39 -9 -25 -25 21 -25 25 0 48 -5
52 -11 4 -7 12 -125 18 -263 10 -234 10 -252 -6 -268 -10 -10 -31 -18 -48 -18
-16 0 -30 -5 -30 -11 0 -12 182 -8 418 7 l92 7 0 113 c0 68 -4 114 -10 114 -5
0 -12 -12 -16 -27 -20 -93 -50 -145 -95 -169 -44 -22 -193 -32 -204 -13 -12
18 -33 499 -23 527 6 18 15 22 48 22 29 0 40 4 40 15 0 8 -8 14 -17 13 -10 -1
-63 -3 -118 -5z"/>
</g>
</svg>
